<svg width="343" height="140" viewBox="0 0 343 140" fill="none" xmlns="http://www.w3.org/2000/svg">
<path d="M228.168 94.2049V26H241.877V94.2049H228.168Z" fill="#C5C3C0"/>
<path d="M68.3906 114.465H39V46.26H67.2087C80.9183 46.26 88.9065 53.7317 88.9065 65.4192C88.9065 72.9846 83.7762 77.8737 80.2252 79.5015C84.4638 81.4164 89.8895 85.7261 89.8895 94.8309C89.8895 107.567 80.9183 114.465 68.3906 114.465ZM66.1236 58.1406H52.7095V73.8507H66.1236C71.9416 73.8507 75.197 70.689 75.197 65.9931C75.197 61.3023 71.9416 58.1406 66.1236 58.1406ZM67.0099 85.8253H52.7095V102.589H67.0099C73.2254 102.589 76.18 98.7599 76.18 94.1579C76.18 89.5612 73.2199 85.8253 67.0099 85.8253Z" fill="#C5C3C0"/>
<path d="M131.705 86.4931V114.465H118.092V86.4931L96.9855 46.26H111.877L124.995 73.7516L137.915 46.26H152.807L131.705 86.4931Z" fill="#C5C3C0"/>
<path d="M191.674 114.465H162.283V46.26H190.492C204.202 46.26 212.19 53.7317 212.19 65.4192C212.19 72.9846 207.059 77.8737 203.508 79.5015C207.747 81.4164 213.173 85.7261 213.173 94.8309C213.173 107.567 204.202 114.465 191.674 114.465ZM189.407 58.1406H175.993V73.8507H189.407C195.225 73.8507 198.48 70.689 198.48 65.9931C198.48 61.3023 195.225 58.1406 189.407 58.1406ZM190.293 85.8253H175.993V102.589H190.293C196.509 102.589 199.463 98.7599 199.463 94.1579C199.463 89.5612 196.509 85.8253 190.293 85.8253Z" fill="#C5C3C0"/>
<path d="M286.063 58.1406V114.47H272.354V58.1406H254.008V46.26H304.409V58.1406H286.063Z" fill="#C5C3C0"/>
</svg>
