<svg width="120" height="120" viewBox="0 0 120 120" fill="none" xmlns="http://www.w3.org/2000/svg">
<rect width="120" height="120" rx="15" fill="#0074E3"/>
<path d="M60.0933 41.7776C54.9402 41.7776 52.1754 39.953 49.4636 37.9364C49.2773 37.7978 49.0913 37.6584 48.9047 37.5185C46.3697 35.6184 43.7368 33.6449 39.131 32.9605C34.1552 32.2209 29.4597 35.8091 25.7683 40.7935C22.0721 45.7846 19.3547 52.2112 18.3387 57.2303C18.2641 57.5986 18.2235 57.9091 18.2164 58.1646C18.2094 58.4188 18.2354 58.6258 18.3001 58.7826C18.3663 58.9433 18.4747 59.0535 18.6263 59.1003C18.7723 59.1456 18.9431 59.1268 19.128 59.0659C19.497 58.9446 19.9718 58.6385 20.5352 58.1919C21.1011 57.743 21.7657 57.1448 22.5155 56.429C23.3362 55.6455 24.804 54.0128 26.0449 52.6324C26.586 52.0305 27.0839 51.4766 27.4662 51.062C27.5461 50.9755 27.6249 50.8895 27.7031 50.8043C28.111 50.3595 28.4991 49.9364 28.8976 49.5705C29.3716 49.1352 29.8544 48.787 30.3912 48.5855C32.6019 47.7557 34.8683 48.2681 36.207 49.7962C37.5434 51.3219 37.9775 53.8874 36.4623 57.2086C35.5177 59.279 33.6728 61.6009 31.536 64.0432C30.7542 64.9369 29.9331 65.8468 29.1042 66.7655C27.6726 68.352 26.2175 69.9646 24.9002 71.5645C22.8197 74.0913 21.069 76.6023 20.2821 78.9573C19.8882 80.1361 19.7344 81.2802 19.9048 82.3698C20.0753 83.4608 20.5698 84.491 21.4627 85.4419C22.8627 86.9328 24.7733 87.3411 26.9242 87.0469C29.0727 86.753 31.4729 85.7576 33.876 84.4257C38.6832 81.7613 43.532 77.7334 46.4525 75.2008C51.4533 70.8642 57.0772 69.5054 60.0933 69.5054C61.5973 69.5054 63.8696 69.9415 66.3379 70.8735C68.805 71.8051 71.4609 73.2295 73.734 75.2008C76.6545 77.7334 81.5033 81.7613 86.3106 84.4257C88.7137 85.7576 91.1139 86.753 93.2623 87.0469C95.4132 87.3411 97.3238 86.9328 98.7238 85.4419C99.6167 84.491 100.111 83.4608 100.282 82.3698C100.452 81.2802 100.298 80.1361 99.9044 78.9573C99.1176 76.6023 97.3667 74.0913 95.2863 71.5645C93.969 69.9646 92.5139 68.352 91.0823 66.7655C90.2534 65.8468 89.4323 64.9369 88.6505 64.0432C86.5137 61.6009 84.6689 59.279 83.7243 57.2086C82.209 53.8874 82.6432 51.3219 83.9795 49.7962C85.3182 48.2681 87.5847 47.7557 89.7954 48.5855C90.3321 48.787 90.8149 49.1352 91.2889 49.5705C91.6874 49.9364 92.0755 50.3596 92.4835 50.8044C92.5616 50.8896 92.6404 50.9756 92.7203 51.062C93.1026 51.4765 93.6005 52.0305 94.1416 52.6324C95.3825 54.0128 96.8503 55.6455 97.671 56.429C98.4208 57.1448 99.0854 57.743 99.6514 58.1919C100.215 58.6385 100.69 58.9446 101.059 59.0659C101.243 59.1268 101.414 59.1456 101.56 59.1003C101.712 59.0535 101.82 58.9433 101.886 58.7826C101.951 58.6258 101.977 58.4188 101.97 58.1646C101.963 57.9091 101.922 57.5986 101.848 57.2303C100.832 52.2112 98.1144 45.7846 94.4182 40.7935C90.7268 35.8091 86.0314 32.2209 81.0555 32.9605C76.4498 33.6449 73.8169 35.6184 71.2818 37.5185C71.0952 37.6584 70.9092 37.7978 70.7229 37.9364C68.0111 39.953 65.2464 41.7776 60.0933 41.7776Z" fill="white"/>
</svg>
