<svg width="1024" height="1024" viewBox="0 0 1024 1024" fill="none" xmlns="http://www.w3.org/2000/svg">
<rect width="1024" height="1024" fill="white"/>
<path d="M512 377.697C473.977 377.697 453.578 364.249 433.568 349.386C432.194 348.365 430.821 347.337 429.444 346.307C410.739 332.302 391.312 317.757 357.328 312.713C320.613 307.262 285.968 333.708 258.73 370.444C231.458 407.229 211.407 454.595 203.91 491.587C203.36 494.302 203.06 496.59 203.008 498.473C202.956 500.347 203.148 501.873 203.625 503.028C204.114 504.212 204.914 505.025 206.032 505.37C207.11 505.703 208.37 505.565 209.734 505.116C212.457 504.222 215.96 501.966 220.117 498.674C224.293 495.366 229.197 490.957 234.729 485.681C240.785 479.907 251.615 467.873 260.771 457.7C264.764 453.263 268.438 449.181 271.259 446.126C271.848 445.488 272.429 444.854 273.006 444.226C276.016 440.948 278.88 437.829 281.82 435.133C285.318 431.924 288.88 429.358 292.84 427.873C309.152 421.757 325.875 425.533 335.753 436.796C345.614 448.041 348.817 466.949 337.637 491.428C330.667 506.687 317.054 523.8 301.288 541.8C295.519 548.387 289.461 555.093 283.344 561.864C272.781 573.557 262.045 585.442 252.325 597.234C236.974 615.857 224.056 634.364 218.25 651.72C215.344 660.409 214.209 668.841 215.466 676.872C216.724 684.912 220.373 692.505 226.961 699.513C237.291 710.502 251.389 713.511 267.259 711.343C283.112 709.177 300.822 701.84 318.553 692.024C354.024 672.387 389.801 642.7 411.35 624.034C448.249 592.072 489.746 582.058 512 582.058C523.097 582.058 539.864 585.272 558.077 592.141C576.28 599.007 595.877 609.505 612.65 624.034C634.199 642.7 669.976 672.387 705.447 692.024C723.178 701.84 740.888 709.177 756.741 711.343C772.611 713.511 786.709 710.502 797.039 699.513C803.627 692.505 807.276 684.912 808.534 676.872C809.791 668.841 808.656 660.409 805.75 651.72C799.944 634.364 787.025 615.857 771.675 597.234C761.955 585.442 751.219 573.557 740.655 561.864C734.539 555.093 728.481 548.387 722.712 541.8C706.946 523.8 693.333 506.687 686.363 491.428C675.183 466.949 678.386 448.041 688.247 436.796C698.125 425.533 714.848 421.757 731.159 427.873C735.12 429.358 738.682 431.924 742.18 435.133C745.12 437.829 747.984 440.949 750.994 444.227C751.571 444.855 752.152 445.488 752.741 446.126C755.562 449.181 759.236 453.263 763.229 457.7C772.385 467.873 783.215 479.907 789.271 485.681C794.803 490.957 799.707 495.366 803.883 498.674C808.04 501.966 811.543 504.222 814.266 505.116C815.63 505.565 816.89 505.703 817.968 505.37C819.086 505.025 819.886 504.212 820.375 503.028C820.852 501.873 821.044 500.347 820.992 498.473C820.94 496.59 820.64 494.302 820.09 491.587C812.593 454.595 792.542 407.229 765.27 370.444C738.032 333.708 703.387 307.262 666.672 312.713C632.688 317.757 613.261 332.302 594.556 346.307C593.179 347.337 591.806 348.365 590.432 349.386C570.422 364.249 550.023 377.697 512 377.697Z" fill="#FBFBFB"/>
</svg>
