<svg width="639" height="639" viewBox="0 0 639 639" fill="none" xmlns="http://www.w3.org/2000/svg">
<rect width="639" height="639" rx="70" fill="#0074E3"/>
<path d="M320 222.466C292.56 222.466 277.837 212.75 263.397 202.012C262.405 201.274 261.415 200.531 260.421 199.787C246.922 189.668 232.902 179.16 208.376 175.515C181.88 171.577 156.876 190.684 137.22 217.226C117.537 243.803 103.067 278.025 97.6568 304.752C97.26 306.713 97.0434 308.366 97.0059 309.727C96.9685 311.08 97.107 312.183 97.4514 313.018C97.8038 313.873 98.3814 314.46 99.1883 314.71C99.9659 314.951 100.876 314.851 101.86 314.527C103.825 313.88 106.353 312.25 109.353 309.872C112.367 307.482 115.906 304.297 119.898 300.485C124.269 296.313 132.085 287.619 138.692 280.268C141.574 277.063 144.225 274.114 146.261 271.906C146.686 271.445 147.106 270.987 147.522 270.533C149.694 268.165 151.761 265.912 153.883 263.963C156.407 261.645 158.978 259.791 161.836 258.718C173.608 254.3 185.677 257.028 192.806 265.165C199.922 273.289 202.234 286.951 194.165 304.636C189.135 315.661 179.311 328.025 167.933 341.031C163.77 345.789 159.397 350.634 154.983 355.527C147.36 363.975 139.612 372.562 132.597 381.082C121.518 394.537 112.196 407.908 108.006 420.448C105.908 426.725 105.089 432.817 105.997 438.62C106.905 444.429 109.538 449.915 114.292 454.978C121.747 462.918 131.921 465.092 143.375 463.525C154.815 461.96 167.596 456.66 180.393 449.568C205.991 435.379 231.811 413.931 247.363 400.445C273.992 377.352 303.94 370.117 320 370.117C328.009 370.117 340.109 372.439 353.253 377.402C366.39 382.363 380.532 389.948 392.637 400.445C408.189 413.931 434.009 435.379 459.607 449.568C472.404 456.66 485.185 461.96 496.625 463.525C508.079 465.092 518.253 462.918 525.708 454.978C530.462 449.915 533.095 444.429 534.003 438.62C534.911 432.817 534.092 426.725 531.994 420.448C527.804 407.908 518.481 394.537 507.403 381.082C500.388 372.562 492.64 363.975 485.017 355.527C480.603 350.634 476.23 345.789 472.067 341.031C460.689 328.025 450.865 315.661 445.835 304.636C437.766 286.951 440.078 273.289 447.194 265.165C454.323 257.028 466.392 254.3 478.164 258.718C481.022 259.791 483.593 261.645 486.117 263.963C488.239 265.912 490.306 268.165 492.478 270.534C492.894 270.987 493.314 271.445 493.739 271.906C495.775 274.113 498.426 277.063 501.308 280.268C507.915 287.619 515.731 296.313 520.102 300.485C524.094 304.297 527.633 307.482 530.647 309.872C533.647 312.25 536.175 313.88 538.14 314.527C539.124 314.851 540.034 314.951 540.812 314.71C541.619 314.46 542.196 313.873 542.549 313.018C542.893 312.183 543.032 311.08 542.994 309.727C542.957 308.366 542.74 306.713 542.343 304.752C536.933 278.025 522.463 243.803 502.78 217.226C483.124 190.684 458.12 171.577 431.624 175.515C407.098 179.16 393.078 189.668 379.579 199.787C378.585 200.531 377.595 201.274 376.603 202.012C362.162 212.75 347.44 222.466 320 222.466Z" fill="white"/>
</svg>
