<svg width="800" height="800" viewBox="0 0 800 800" fill="none" xmlns="http://www.w3.org/2000/svg">
<rect width="800" height="800" fill="url(#paint0_linear_25_2)"/>
<path d="M397.935 104.918C243.477 104.918 116.942 224.441 104.918 376.336L262.513 441.728C275.867 432.562 291.998 427.193 309.353 427.193C310.909 427.193 312.457 427.259 313.993 427.333L384.076 325.387C384.076 324.9 384.076 324.426 384.076 323.946C384.076 262.583 433.814 212.661 494.964 212.661C556.108 212.661 605.846 262.583 605.846 323.946C605.846 385.308 556.108 435.237 494.964 435.237C494.12 435.237 493.283 435.237 492.445 435.171L392.491 506.746C392.558 508.046 392.591 509.374 392.591 510.695C392.591 556.762 355.256 594.223 309.36 594.223C269.074 594.223 235.388 565.367 227.757 527.151L115.048 480.417C149.943 604.276 263.331 695.082 397.935 695.082C560.329 695.082 691.968 562.965 691.968 400.01C691.968 237.029 560.322 104.918 397.935 104.918Z" fill="white"/>
<path d="M287.745 551.03L251.728 536.245C258.111 549.45 269.153 560.507 283.815 566.58C315.51 579.698 352.051 564.755 365.261 533.236C371.657 517.996 371.697 501.169 365.354 485.89C359.024 470.605 347.08 458.684 331.723 452.322C316.485 446.02 300.16 446.25 285.816 451.631L323.02 466.917C346.397 476.598 357.453 503.27 347.71 526.498C337.986 549.733 311.122 560.718 287.745 551.03Z" fill="white"/>
<path d="M568.858 323.882C568.858 281.893 535.944 247.728 495.477 247.728C455.017 247.728 422.096 281.893 422.096 323.882C422.096 365.877 455.017 400.029 495.477 400.029C535.944 400.029 568.858 365.87 568.858 323.882ZM440.474 323.752C440.474 292.156 465.157 266.547 495.603 266.547C526.048 266.547 550.731 292.156 550.731 323.752C550.731 355.348 526.048 380.956 495.603 380.956C465.157 380.956 440.474 355.341 440.474 323.752Z" fill="white"/>
<defs>
<linearGradient id="paint0_linear_25_2" x1="400" y1="-301.639" x2="400" y2="1800" gradientUnits="userSpaceOnUse">
<stop stop-color="#101C2F"/>
<stop offset="1" stop-color="#1382B4"/>
</linearGradient>
</defs>
</svg>
