<svg width="182" height="88" viewBox="0 0 182 88" fill="none" xmlns="http://www.w3.org/2000/svg">
<path d="M146.704 77.1084C146.921 77.1084 147.158 77.1187 147.405 77.1496C147.467 77.1599 147.529 77.1702 147.591 77.1805C147.652 77.1805 147.714 77.2011 147.786 77.2114C147.91 77.232 148.044 77.2629 148.178 77.3042C148.724 77.4484 149.311 77.6854 149.909 77.9636C150.486 78.2212 151.073 78.5097 151.599 78.7776C152.124 79.0455 152.588 79.3031 152.918 79.4783C153.247 79.6534 153.443 79.7668 153.443 79.7668C153.443 79.7668 153.392 79.7874 153.289 79.8286C153.186 79.8595 153.041 79.9213 152.866 79.9729C152.495 80.0759 151.98 80.2099 151.393 80.3335C151.248 80.3644 151.094 80.3953 150.939 80.4159C150.785 80.4365 150.62 80.4572 150.465 80.4778C150.146 80.5087 149.816 80.5396 149.486 80.5499C148.837 80.5808 148.168 80.4984 147.601 80.3438C146.467 80.0347 145.695 79.334 145.221 78.757C144.736 78.1697 144.541 77.6854 144.541 77.6854C144.541 77.6854 144.932 77.4381 145.571 77.2835C145.89 77.2114 146.272 77.129 146.715 77.129L146.704 77.1084Z" fill="#728A96"/>
<path d="M144.963 72.6054C145.231 72.1829 145.581 71.812 145.942 71.4513C146.117 71.2762 146.313 71.1113 146.498 70.9568C146.591 70.8846 146.684 70.8022 146.776 70.7404C146.869 70.6682 146.951 70.5961 147.044 70.524C147.395 70.2561 147.714 70.0397 147.941 69.8954C148.167 69.7409 148.312 69.6482 148.312 69.6482C148.312 69.6482 148.312 69.8542 148.301 70.184C148.301 70.524 148.26 70.9774 148.188 71.5029C148.116 72.0181 148.002 72.6054 147.838 73.1721C147.673 73.7182 147.436 74.254 147.158 74.6971C147.096 74.8104 147.013 74.9135 146.941 75.0165C146.91 75.068 146.869 75.1092 146.828 75.1608C146.787 75.202 146.756 75.2432 146.714 75.2844C146.55 75.4493 146.385 75.5832 146.21 75.7069C146.045 75.8305 145.87 75.9232 145.705 76.0057C145.54 76.0881 145.375 76.1602 145.22 76.2015C144.602 76.3766 144.159 76.3457 144.159 76.3457C144.159 76.3457 144.087 75.8202 144.159 75.0989C144.2 74.7383 144.262 74.3261 144.396 73.9037C144.427 73.8006 144.468 73.6873 144.509 73.5843C144.551 73.4709 144.592 73.3679 144.633 73.2545C144.726 73.0381 144.839 72.8218 144.973 72.6157L144.963 72.6054Z" fill="#728A96"/>
<path d="M153.731 73.8522C153.731 73.8522 153.824 73.7697 153.896 73.7079C154.041 73.5843 154.257 73.4091 154.545 73.2545C154.69 73.1721 154.844 73.0897 155.03 73.0175C155.205 72.9454 155.411 72.8836 155.607 72.8115C156.019 72.6878 156.513 72.6157 157.08 72.626C157.369 72.626 157.657 72.6466 157.966 72.6775C158.275 72.7084 158.595 72.7496 158.914 72.8012C159.234 72.8527 159.563 72.9145 159.873 72.9763C160.182 73.0382 160.491 73.1 160.779 73.1618C161.356 73.2855 161.871 73.3988 162.232 73.4915C162.603 73.5843 162.819 73.6358 162.819 73.6358C162.819 73.6358 162.634 73.7697 162.304 73.9655C162.15 74.0686 161.954 74.1819 161.738 74.3055C161.634 74.3674 161.511 74.4395 161.387 74.5013C161.264 74.5631 161.13 74.625 160.996 74.6971C160.728 74.8207 160.439 74.9547 160.14 75.068C159.986 75.1299 159.842 75.1814 159.687 75.2432C159.615 75.2741 159.532 75.305 159.46 75.3256C159.378 75.3462 159.306 75.3669 159.223 75.3978C158.585 75.5729 157.946 75.6863 157.358 75.6863C156.163 75.6553 155.246 75.202 154.618 74.7692C154.308 74.5528 154.061 74.3364 153.907 74.1716C153.742 74.0067 153.659 73.9037 153.659 73.9037C153.659 73.9037 153.68 73.8831 153.721 73.8522H153.731Z" fill="#728A96"/>
<path d="M155.38 70.3696C155.236 70.8538 154.999 71.2557 154.741 71.5854C154.618 71.7503 154.473 71.8842 154.339 71.9976C154.195 72.1109 154.061 72.214 153.927 72.2964C153.659 72.4613 153.412 72.5746 153.237 72.6364C153.155 72.6673 153.072 72.6879 153.021 72.6982C152.969 72.7086 152.938 72.7189 152.938 72.7189C152.938 72.7189 152.887 72.5952 152.814 72.3891C152.742 72.1831 152.66 71.8842 152.598 71.5133C152.464 70.792 152.402 69.8338 152.681 68.9064C152.814 68.4324 153.041 67.9687 153.299 67.5463C153.546 67.1135 153.835 66.7014 154.102 66.3613C154.236 66.1965 154.36 66.0213 154.473 65.8873C154.587 65.7431 154.69 65.6194 154.783 65.5164C154.958 65.3103 155.081 65.197 155.081 65.197C155.081 65.197 155.143 65.3928 155.215 65.7122C155.298 66.0316 155.39 66.4953 155.463 67.0105C155.504 67.2784 155.535 67.5566 155.555 67.8451C155.576 68.1233 155.576 68.4118 155.576 68.7106C155.576 68.9991 155.555 69.2876 155.524 69.5762C155.483 69.8544 155.442 70.1326 155.36 70.3696H155.38Z" fill="#728A96"/>
<path d="M161.924 67.3404C162.027 67.1858 162.181 66.9591 162.418 66.7325C162.645 66.4955 162.944 66.2585 163.315 66.0318C163.675 65.8051 164.118 65.599 164.675 65.4548C164.86 65.4033 165.056 65.362 165.252 65.3311C165.447 65.2899 165.654 65.259 165.86 65.2281C166.89 65.0735 168.065 65.0117 168.951 64.9602C169.847 64.9087 170.486 64.8984 170.486 64.8984C170.486 64.8984 170.27 65.1766 169.899 65.5784C169.538 65.9906 168.982 66.4955 168.364 66.9798C168.271 67.0519 168.168 67.124 168.075 67.1961C168.023 67.2373 167.972 67.2683 167.92 67.3095C167.869 67.3404 167.817 67.3713 167.766 67.4125C167.56 67.5465 167.343 67.6701 167.127 67.7938C166.911 67.9071 166.694 68.0205 166.478 68.1029C166.261 68.1956 166.045 68.278 165.829 68.3296C164.675 68.6181 163.665 68.4429 162.944 68.1853C162.212 67.9277 161.769 67.6083 161.769 67.6083C161.769 67.6083 161.821 67.5053 161.924 67.3507V67.3404Z" fill="#728A96"/>
<path d="M161.542 65.9906C161.336 66.2276 161.13 66.4027 160.975 66.5058C160.82 66.6088 160.717 66.6603 160.717 66.6603C160.717 66.6603 160.367 66.2482 160.037 65.599C159.697 64.9396 159.357 64.0328 159.368 63.0643C159.368 62.7036 159.399 62.3327 159.471 61.9823C159.502 61.8072 159.553 61.632 159.605 61.4568C159.656 61.292 159.697 61.1065 159.749 60.9416C159.842 60.6531 159.934 60.3749 160.037 60.1276C160.068 60.0658 160.089 60.004 160.11 59.9422C160.14 59.8803 160.151 59.8288 160.182 59.767C160.223 59.6536 160.264 59.5506 160.305 59.4579C160.47 59.0766 160.594 58.8499 160.594 58.8499C160.594 58.8499 160.913 59.3239 161.284 60.0555C161.377 60.241 161.47 60.4264 161.573 60.6428C161.624 60.7459 161.665 60.8592 161.717 60.9622C161.768 61.0653 161.799 61.1786 161.851 61.292C162.016 61.735 162.16 62.2193 162.263 62.6933C162.304 62.8788 162.335 63.0539 162.356 63.2291C162.376 63.4043 162.387 63.5794 162.387 63.7443C162.387 64.2595 162.284 64.7026 162.129 65.0838C161.964 65.4548 161.748 65.7536 161.542 65.9906Z" fill="#728A96"/>
<path d="M169.63 59.6022C169.404 59.6125 169.198 59.6022 169.002 59.6022C168.229 59.5506 167.714 59.3652 167.714 59.3652C167.714 59.3652 167.735 59.2518 167.796 59.0767C167.827 58.9839 167.869 58.8809 167.92 58.7572C167.961 58.6336 168.023 58.4996 168.095 58.3554C168.25 58.0669 168.456 57.7577 168.755 57.4383C168.827 57.3662 168.899 57.2941 168.981 57.2013C169.064 57.1189 169.146 57.0468 169.239 56.9643C169.424 56.8098 169.641 56.6552 169.878 56.511C170.115 56.3667 170.383 56.2328 170.671 56.0988C170.939 55.9649 171.238 55.8412 171.526 55.7176C172.114 55.4703 172.742 55.2539 173.309 55.0581C173.865 54.8623 174.35 54.6975 174.71 54.5841C175.071 54.4708 175.287 54.3987 175.287 54.3987C175.287 54.3987 175.205 54.6047 175.05 54.9448C174.978 55.1096 174.875 55.3157 174.762 55.5321C174.638 55.7485 174.504 55.9855 174.35 56.2328C174.195 56.4801 174.02 56.7377 173.845 56.9953C173.804 57.0571 173.752 57.1189 173.701 57.1807C173.649 57.2426 173.608 57.3044 173.546 57.3662C173.443 57.4898 173.34 57.6135 173.227 57.7268C173.01 57.9638 172.783 58.1905 172.546 58.3966C172.433 58.4996 172.309 58.6027 172.186 58.6851C172.062 58.7675 171.939 58.85 171.805 58.9324C171.3 59.2312 170.785 59.3961 170.311 59.4888C170.074 59.5403 169.837 59.5609 169.62 59.5712L169.63 59.6022Z" fill="#728A96"/>
<path d="M167.323 56.8509C167.271 57.2527 167.158 57.5928 167.034 57.8813C166.972 58.0255 166.9 58.1492 166.838 58.2522C166.777 58.3655 166.694 58.448 166.643 58.5201C166.529 58.6644 166.437 58.7365 166.437 58.7365C166.437 58.7365 165.983 58.4377 165.478 57.9019C165.355 57.7679 165.221 57.6237 165.097 57.4588C164.963 57.2939 164.829 57.1188 164.705 56.923C164.458 56.5417 164.242 56.1193 164.098 55.6556C164.056 55.5423 164.036 55.4186 164.005 55.295C163.974 55.1713 163.953 55.0477 163.933 54.924C163.891 54.6767 163.871 54.4294 163.861 54.1821C163.861 53.6876 163.84 53.2033 163.881 52.7705C163.902 52.5541 163.922 52.3584 163.943 52.1729C163.953 51.9874 163.974 51.8329 163.994 51.6989C164.025 51.431 164.056 51.2764 164.056 51.2764C164.056 51.2764 164.211 51.4104 164.458 51.6474C164.705 51.8844 165.045 52.2141 165.406 52.616C165.756 53.0178 166.117 53.4815 166.437 53.9761C166.601 54.2234 166.746 54.481 166.88 54.7386C167.003 54.9859 167.106 55.2435 167.178 55.4907C167.251 55.738 167.292 55.975 167.323 56.2017C167.333 56.3151 167.343 56.4284 167.343 56.5315C167.343 56.583 167.343 56.6345 167.343 56.686C167.343 56.7375 167.333 56.789 167.323 56.8406V56.8509Z" fill="#728A96"/>
<path d="M174.133 49.3805C173.917 49.5351 173.69 49.6588 173.474 49.7721C173.031 49.9885 172.608 50.1121 172.227 50.1946C171.475 50.3491 170.929 50.3079 170.929 50.3079C170.929 50.3079 170.867 49.8648 171.011 49.2363C171.042 49.0817 171.104 48.9169 171.156 48.7314C171.207 48.5562 171.279 48.3708 171.382 48.175C171.475 47.9895 171.588 47.7834 171.733 47.5877C171.805 47.4846 171.877 47.3919 171.959 47.2888C172.001 47.2373 172.042 47.1858 172.093 47.1343C172.134 47.0828 172.176 47.0313 172.227 46.99C172.969 46.1863 174.164 45.3723 175.112 44.7026C175.597 44.3728 176.029 44.0843 176.338 43.8782C176.658 43.6722 176.854 43.5588 176.854 43.5588C176.854 43.5588 176.823 43.7855 176.761 44.1461C176.699 44.5068 176.606 45.0117 176.452 45.5681C176.287 46.1245 176.06 46.7324 175.792 47.3095C175.731 47.4537 175.648 47.598 175.566 47.7319C175.483 47.8659 175.401 47.9998 175.318 48.1338C175.143 48.3914 174.958 48.6284 174.762 48.8344C174.556 49.0405 174.36 49.226 174.133 49.3805Z" fill="#728A96"/>
<path d="M169.528 50.0399C169.528 50.0399 169.002 49.8647 168.363 49.4834C168.033 49.2877 167.683 49.0404 167.343 48.7416C167.178 48.587 167.013 48.4324 166.859 48.247C166.694 48.0718 166.539 47.876 166.405 47.6699C166.271 47.4639 166.148 47.2372 166.045 47.0105C165.942 46.7838 165.87 46.5468 165.777 46.3098C165.602 45.8358 165.488 45.3619 165.406 44.9394C165.303 44.5169 165.241 44.146 165.2 43.8781C165.169 43.6102 165.159 43.4453 165.159 43.4453C165.159 43.4453 165.344 43.5381 165.643 43.6926C165.942 43.8575 166.354 44.0945 166.818 44.383C167.271 44.6818 167.776 45.0424 168.209 45.434C168.652 45.8255 169.054 46.2583 169.342 46.7014C169.497 46.9178 169.589 47.1341 169.672 47.3505C169.754 47.5669 169.806 47.773 169.847 47.9688C169.888 48.1645 169.898 48.3603 169.909 48.5355C169.909 48.7106 169.888 48.8858 169.868 49.0301C169.765 49.638 169.538 50.0192 169.538 50.0192L169.528 50.0399Z" fill="#728A96"/>
<path d="M175.329 35.8619C175.298 36.0989 175.246 36.3359 175.195 36.5729C175.081 37.0366 174.958 37.4797 174.741 37.8609C174.463 38.3761 174.133 38.778 173.773 39.0974C173.412 39.4168 173.052 39.6538 172.701 39.829C172.011 40.1793 171.475 40.2823 171.475 40.2823C171.475 40.2823 171.434 40.1793 171.382 39.9938C171.341 39.8084 171.269 39.5508 171.238 39.2313C171.207 38.9119 171.217 38.541 171.3 38.1185C171.372 37.7064 171.506 37.2427 171.764 36.7584C171.846 36.5935 171.949 36.4287 172.052 36.2638C172.104 36.1814 172.155 36.0989 172.217 36.0062C172.268 35.9238 172.33 35.831 172.382 35.7486C172.67 35.3261 172.99 34.8934 173.319 34.4915C173.639 34.0794 173.969 33.6878 174.247 33.3581C174.803 32.6883 175.226 32.2144 175.226 32.2144C175.226 32.2144 175.288 32.5544 175.36 33.0902C175.401 33.3581 175.411 33.6775 175.421 34.0278C175.421 34.3782 175.421 34.7491 175.421 35.1407C175.421 35.3777 175.38 35.6147 175.349 35.8619H175.329Z" fill="#728A96"/>
<path d="M166.375 38.9738C166.303 38.912 166.241 38.8502 166.179 38.7883C166.117 38.7265 166.045 38.6544 165.983 38.5926C165.849 38.4586 165.726 38.3144 165.612 38.1701C165.499 38.0258 165.396 37.8713 165.293 37.727C165.19 37.5622 165.087 37.4179 164.994 37.2737C164.829 37.0161 164.685 36.7585 164.561 36.5215C164.5 36.3978 164.438 36.2845 164.386 36.1814C164.335 36.0681 164.283 35.9754 164.232 35.8826C164.046 35.5117 163.953 35.2747 163.953 35.2747C163.953 35.2747 164.53 35.3674 165.344 35.5838C165.54 35.6353 165.767 35.6972 165.983 35.7693C166.2 35.8414 166.426 35.9238 166.663 36.0166C167.127 36.1917 167.591 36.4081 168.023 36.6554C168.364 36.8409 168.652 37.0573 168.91 37.2737C169.301 37.6137 169.59 37.9846 169.775 38.3556C169.95 38.7162 170.043 39.0768 170.084 39.3757C170.125 39.6848 170.136 39.9424 170.105 40.1278C170.084 40.3133 170.053 40.4164 170.053 40.4164C170.053 40.4164 169.507 40.3854 168.786 40.1897C168.065 39.9939 167.127 39.623 166.385 38.9738H166.375Z" fill="#728A96"/>
<path d="M170.949 28.7727C170.692 29.1745 170.403 29.5146 170.125 29.7722C169.569 30.2874 169.084 30.5347 169.084 30.5347C169.084 30.5347 169.012 30.4419 168.909 30.2874C168.806 30.1225 168.682 29.8855 168.559 29.5867C168.435 29.2879 168.332 28.9272 168.281 28.5048C168.26 28.2987 168.26 28.072 168.26 27.835C168.26 27.598 168.281 27.3507 168.332 27.0828C168.384 26.8149 168.456 26.5367 168.538 26.2482C168.579 26.104 168.631 25.9597 168.682 25.8052C168.734 25.6609 168.775 25.5166 168.827 25.3621C169.033 24.7748 169.27 24.1874 169.496 23.6516C169.61 23.3837 169.713 23.1364 169.816 22.9098C169.909 22.6831 170.001 22.4873 170.073 22.3224C170.218 21.9824 170.31 21.7866 170.31 21.7866C170.31 21.7866 170.424 21.9824 170.578 22.3224C170.661 22.4873 170.743 22.6934 170.836 22.9201C170.929 23.157 171.021 23.4146 171.104 23.6825C171.145 23.8165 171.197 23.9608 171.238 24.105C171.279 24.2493 171.32 24.3935 171.351 24.5584C171.413 24.8675 171.475 25.1766 171.516 25.496C171.557 25.8155 171.588 26.1246 171.588 26.4234C171.588 26.7325 171.557 27.0313 171.506 27.3095C171.392 27.8659 171.197 28.3502 170.949 28.7521V28.7727Z" fill="#728A96"/>
<path d="M163.149 30.2768C162.933 30.1428 162.716 29.9883 162.51 29.8337C162.315 29.6791 162.129 29.5143 161.944 29.3494C161.769 29.1846 161.583 29.03 161.428 28.8754C161.274 28.7209 161.13 28.5663 161.006 28.4324C160.944 28.3602 160.882 28.2984 160.831 28.2366C160.779 28.1748 160.728 28.1232 160.676 28.0717C160.491 27.8657 160.388 27.742 160.388 27.742C160.388 27.742 160.594 27.7214 160.944 27.6905C161.295 27.6699 161.779 27.639 162.325 27.6596C162.861 27.6802 163.479 27.7317 164.077 27.8244C164.231 27.8553 164.375 27.876 164.53 27.9069C164.674 27.9378 164.818 27.979 164.952 28.0202C165.231 28.1026 165.499 28.1954 165.736 28.3087C165.973 28.4221 166.189 28.5457 166.385 28.6797C166.58 28.8136 166.735 28.9682 166.879 29.1124C167.157 29.4112 167.353 29.7307 167.487 30.0089C167.621 30.2871 167.673 30.5447 167.704 30.7198C167.735 30.9053 167.745 31.0084 167.745 31.0084C167.745 31.0084 167.209 31.132 166.457 31.132C166.076 31.132 165.643 31.1114 165.2 31.029C164.736 30.9568 164.262 30.8229 163.798 30.6168C163.572 30.5138 163.355 30.3901 163.139 30.2459L163.149 30.2768Z" fill="#728A96"/>
<path d="M165.54 19.9935C165.406 20.4469 165.221 20.8385 165.025 21.1682C164.644 21.807 164.242 22.1677 164.242 22.1677C164.242 22.1677 163.85 21.9101 163.459 21.3949C163.356 21.2609 163.263 21.1167 163.17 20.9518C163.077 20.7973 162.974 20.6118 162.892 20.4263C162.727 20.0348 162.603 19.5711 162.552 19.025C162.49 18.4892 162.5 17.8812 162.552 17.2527C162.603 16.6242 162.655 16.0059 162.727 15.4289C162.799 14.8622 162.871 14.3573 162.923 13.9967C162.985 13.636 163.016 13.4197 163.016 13.4197C163.016 13.4197 163.057 13.4609 163.129 13.533C163.191 13.6154 163.294 13.7288 163.417 13.873C163.654 14.1615 163.984 14.5737 164.314 15.0477C164.633 15.5422 164.953 16.109 165.21 16.686C165.458 17.2733 165.633 17.8812 165.695 18.448C165.705 18.5922 165.715 18.7262 165.715 18.8601C165.715 18.9941 165.705 19.128 165.695 19.262C165.664 19.5196 165.612 19.7669 165.55 19.9935H165.54Z" fill="#728A96"/>
<path d="M158.44 23.4556C158.317 23.4144 158.203 23.3732 158.08 23.3217C158.018 23.3011 157.967 23.2805 157.905 23.2495C157.843 23.2289 157.781 23.198 157.719 23.1774C157.235 22.9816 156.802 22.7447 156.421 22.5283C156.029 22.3222 155.7 22.1161 155.473 21.9616C155.36 21.8791 155.267 21.8173 155.205 21.7761C155.143 21.7349 155.102 21.7143 155.102 21.7143C155.102 21.7143 155.154 21.6937 155.246 21.6627C155.339 21.6318 155.473 21.5803 155.628 21.5288C155.947 21.4257 156.411 21.2815 156.946 21.1578C157.214 21.096 157.493 21.0342 157.791 20.9827C157.936 20.9621 158.09 20.9312 158.234 20.9106C158.379 20.8899 158.533 20.8796 158.677 20.8693C159.275 20.8178 159.883 20.8178 160.419 20.9106C160.944 21.0033 161.377 21.1888 161.738 21.3948C161.923 21.4979 162.078 21.6112 162.222 21.7349C162.356 21.8585 162.469 21.9822 162.572 22.1058C162.974 22.5901 163.118 23.0023 163.118 23.0023C163.118 23.0023 162.634 23.2598 161.903 23.4659C161.542 23.569 161.109 23.6617 160.646 23.7029C160.182 23.7441 159.708 23.7338 159.193 23.6617C158.935 23.6205 158.688 23.5587 158.44 23.4762V23.4556Z" fill="#728A96"/>
<path d="M157.039 14.7589C156.946 14.965 156.874 15.0783 156.874 15.0783C156.874 15.0783 156.843 15.0783 156.792 15.0474C156.74 15.0268 156.668 14.9959 156.586 14.9547C156.411 14.8722 156.163 14.7383 155.906 14.5425C155.39 14.1406 154.752 13.543 154.35 12.5126C154.216 12.1726 154.082 11.8016 153.979 11.4101C153.845 10.9155 153.732 10.39 153.639 9.8851C153.536 9.39052 153.443 8.90623 153.381 8.47346C153.237 7.61824 153.165 7.01031 153.165 7C153.165 7 153.474 7.18547 153.927 7.50489C154.154 7.65945 154.412 7.85523 154.7 8.07161C154.968 8.2983 155.257 8.5559 155.545 8.8341C155.72 8.99897 155.885 9.17413 156.05 9.3596C156.091 9.40082 156.132 9.45234 156.174 9.49355C156.215 9.53477 156.246 9.58629 156.287 9.63781C156.359 9.73054 156.431 9.83358 156.503 9.92632C156.792 10.3179 157.029 10.7197 157.194 11.1216C157.307 11.3792 157.379 11.6574 157.42 11.9047C157.462 12.1623 157.492 12.4096 157.492 12.6466C157.503 13.1205 157.431 13.543 157.338 13.9037C157.245 14.2643 157.132 14.5528 157.039 14.7589Z" fill="#728A96"/>
<path d="M150.208 17.696C149.899 17.6341 149.61 17.562 149.342 17.4899C149.074 17.4281 148.827 17.3662 148.621 17.3044C148.219 17.1808 147.962 17.088 147.962 17.088C147.962 17.088 148.425 16.7377 149.136 16.3152C149.487 16.0989 149.909 15.8722 150.362 15.6558C150.805 15.4497 151.279 15.2642 151.764 15.12C152.135 15.0066 152.495 14.9242 152.846 14.8933C153.897 14.8006 154.731 15.0994 155.257 15.4703C155.525 15.6455 155.72 15.831 155.844 15.9546C155.906 16.0164 155.957 16.0783 155.988 16.1195C156.019 16.1607 156.03 16.1813 156.03 16.1813C156.03 16.1813 155.937 16.274 155.762 16.4183C155.586 16.5625 155.329 16.748 154.999 16.9438C154.68 17.1396 154.288 17.3456 153.866 17.5105C153.649 17.5929 153.423 17.6651 153.186 17.7166C152.949 17.7784 152.712 17.8196 152.454 17.8505C151.702 17.9433 150.929 17.8196 150.208 17.7063V17.696Z" fill="#728A96"/>
<path d="M139.172 77.9017C139.379 77.8811 139.626 77.8502 139.914 77.809C140.059 77.7883 140.213 77.778 140.368 77.7471C140.522 77.7162 140.697 77.6853 140.862 77.6544C141.213 77.5926 141.584 77.5307 141.985 77.4586C142.377 77.3659 142.799 77.2731 143.232 77.1804C143.449 77.1289 143.675 77.0877 143.892 77.0258C144.108 76.964 144.335 76.9022 144.551 76.8404C144.994 76.7167 145.458 76.6034 145.901 76.4488C147.704 75.913 149.435 75.1608 150.703 74.5632C151.012 74.4086 151.31 74.2644 151.558 74.1407C151.692 74.0789 151.805 74.0171 151.918 73.9656C152.032 73.9141 152.124 73.8522 152.217 73.8007C152.578 73.6049 152.774 73.4916 152.774 73.4916C152.774 73.4916 152.98 73.3783 153.34 73.1825C153.691 72.9764 154.185 72.657 154.783 72.2963C155.947 71.5235 157.483 70.4519 158.874 69.2258C160.275 68.0099 161.563 66.6704 162.47 65.6297C162.593 65.506 162.686 65.3721 162.789 65.2485C162.892 65.1248 162.985 65.0115 163.067 64.8981C163.242 64.6817 163.397 64.4963 163.531 64.3314C163.665 64.1768 163.747 64.0429 163.809 63.9605C163.871 63.8677 163.912 63.8265 163.912 63.8265C163.912 63.8265 164.046 63.641 164.283 63.3216C164.396 63.1568 164.551 62.9713 164.706 62.7343C164.86 62.4973 165.035 62.2397 165.231 61.9512C165.324 61.8069 165.427 61.6627 165.53 61.5081C165.633 61.3536 165.726 61.1887 165.829 61.0135C166.035 60.6735 166.241 60.3129 166.468 59.9522C166.663 59.571 166.88 59.1794 167.086 58.7879C167.137 58.6848 167.189 58.5921 167.251 58.4891C167.302 58.386 167.343 58.283 167.395 58.1799C167.488 57.9739 167.591 57.7678 167.683 57.5617C168.446 55.9028 169.085 54.182 169.445 52.8631C169.497 52.6983 169.538 52.5437 169.59 52.3891C169.631 52.2449 169.682 52.1006 169.703 51.9667C169.765 51.6988 169.827 51.4618 169.868 51.266C169.961 50.8745 170.012 50.6581 170.012 50.6581C170.012 50.6581 170.022 50.6066 170.053 50.5035C170.074 50.4005 170.105 50.2459 170.136 50.0501C170.177 49.8544 170.218 49.6174 170.259 49.3495C170.311 49.0816 170.383 48.7725 170.414 48.4324C170.455 48.0924 170.507 47.7318 170.558 47.3402C170.569 47.2475 170.589 47.1444 170.599 47.0517C170.61 46.9487 170.62 46.8559 170.63 46.7426C170.641 46.5365 170.661 46.3304 170.682 46.114C170.775 45.2691 170.775 44.3521 170.795 43.4453C170.764 42.5386 170.764 41.6318 170.682 40.7766C170.672 40.5705 170.651 40.3541 170.63 40.1481C170.63 40.045 170.62 39.942 170.599 39.8492C170.589 39.7462 170.569 39.6535 170.558 39.5504C170.507 39.1692 170.455 38.7982 170.414 38.4582C170.373 38.1182 170.311 37.8194 170.259 37.5412C170.208 37.2733 170.167 37.0363 170.136 36.8405C170.095 36.6447 170.074 36.4902 170.053 36.3871C170.022 36.2841 170.012 36.2326 170.012 36.2326C170.012 36.2326 169.961 36.0162 169.868 35.6246C169.827 35.4289 169.765 35.1919 169.703 34.924C169.672 34.79 169.631 34.6458 169.59 34.5015C169.548 34.3469 169.497 34.1924 169.445 34.0275C169.085 32.7086 168.446 30.9982 167.683 29.3289C167.58 29.1228 167.488 28.9168 167.395 28.7107C167.343 28.6076 167.302 28.5046 167.251 28.4016C167.199 28.2985 167.148 28.2058 167.086 28.1028C166.869 27.7009 166.663 27.3094 166.468 26.9384C166.251 26.5675 166.035 26.2068 165.829 25.8771C165.726 25.7122 165.633 25.5371 165.53 25.3825C165.427 25.228 165.324 25.0837 165.231 24.9394C165.046 24.6509 164.86 24.3933 164.706 24.1563C164.551 23.9194 164.396 23.7339 164.283 23.569C164.046 23.2393 163.912 23.0641 163.912 23.0641C163.912 23.0641 163.871 23.0126 163.809 22.9302C163.747 22.8477 163.655 22.7138 163.531 22.5592C163.407 22.4047 163.242 22.2089 163.067 21.9925C162.975 21.8792 162.882 21.7658 162.789 21.6422C162.686 21.5185 162.583 21.3949 162.47 21.2609C161.563 20.2202 160.275 18.8807 158.874 17.6649C157.472 16.4387 155.947 15.3671 154.783 14.5943C154.185 14.2337 153.691 13.9142 153.34 13.7082C152.98 13.5124 152.774 13.3991 152.774 13.3991C152.774 13.3991 152.568 13.2857 152.217 13.0899C152.124 13.0384 152.032 12.9869 151.918 12.9251C151.805 12.8736 151.692 12.8117 151.558 12.7499C151.475 12.7087 151.383 12.6675 151.29 12.616H151.269C151.043 12.6366 150.723 12.6469 150.342 12.616C149.579 12.5851 148.59 12.4202 147.725 11.9462C147.271 11.7195 146.849 11.4001 146.478 11.0601C146.303 10.8849 146.107 10.72 145.932 10.5449C145.757 10.38 145.602 10.2048 145.458 10.04C145.18 9.71026 144.922 9.42175 144.757 9.20537C144.592 8.98898 144.5 8.85503 144.5 8.85503C144.5 8.85503 144.706 8.85503 145.056 8.84473C145.406 8.84473 145.891 8.84473 146.437 8.89625C146.571 8.90655 146.715 8.91685 146.859 8.93746C147.003 8.95807 147.148 8.97868 147.292 8.99929C147.58 9.0405 147.879 9.10233 148.168 9.16415C148.755 9.3084 149.342 9.48357 149.796 9.74117C150.259 9.98846 150.62 10.2976 150.888 10.6067C151.146 10.9261 151.31 11.2455 151.434 11.5444C151.547 11.8329 151.599 12.0905 151.62 12.2656C151.62 12.2965 151.62 12.3378 151.62 12.3687C151.651 12.3893 151.692 12.3996 151.723 12.4202C151.846 12.482 151.97 12.5438 152.083 12.5954C152.197 12.6572 152.289 12.7087 152.382 12.7602C152.743 12.956 152.949 13.0796 152.949 13.0796C152.949 13.0796 153.155 13.193 153.516 13.3888C153.866 13.5948 154.371 13.9142 154.968 14.2852C156.143 15.058 157.689 16.1502 159.1 17.3867C160.512 18.6231 161.81 19.9626 162.738 21.024C162.861 21.1476 162.954 21.2815 163.057 21.4052C163.16 21.5288 163.253 21.6422 163.345 21.7555C163.531 21.9719 163.686 22.1677 163.809 22.3222C163.943 22.4768 164.026 22.6108 164.098 22.6932C164.159 22.7756 164.201 22.8271 164.201 22.8271C164.201 22.8271 164.335 23.0126 164.582 23.3423C164.695 23.5072 164.85 23.703 165.015 23.94C165.169 24.177 165.344 24.4449 165.54 24.7334C165.643 24.8776 165.736 25.0322 165.839 25.1867C165.942 25.3413 166.035 25.5165 166.138 25.6813C166.344 26.0214 166.56 26.382 166.777 26.7529C166.983 27.1342 167.189 27.5257 167.405 27.9379C167.457 28.0409 167.508 28.144 167.57 28.2367C167.622 28.3397 167.663 28.4428 167.714 28.5458C167.817 28.7519 167.91 28.9683 168.013 29.1744C168.786 30.8539 169.435 32.585 169.796 33.9142C169.847 34.079 169.888 34.2336 169.94 34.3882C169.981 34.5427 170.033 34.6767 170.064 34.8209C170.125 35.0888 170.187 35.3361 170.229 35.5319C170.321 35.9234 170.383 36.1501 170.383 36.1501C170.383 36.1501 170.393 36.212 170.424 36.315C170.455 36.418 170.476 36.5726 170.517 36.7787C170.548 36.9744 170.599 37.2217 170.651 37.4896C170.702 37.7678 170.764 38.077 170.806 38.417C170.847 38.757 170.898 39.128 170.95 39.5195C170.96 39.6226 170.981 39.7153 170.991 39.8183C171.001 39.9214 171.012 40.0244 171.022 40.1274C171.032 40.3335 171.053 40.5396 171.073 40.7663C171.166 41.6215 171.166 42.5386 171.197 43.4556C171.166 44.3727 171.166 45.2897 171.073 46.1449C171.053 46.3613 171.043 46.5674 171.022 46.7735C171.012 46.8765 171.012 46.9796 170.991 47.0723C170.981 47.1753 170.96 47.2784 170.95 47.3711C170.898 47.7627 170.847 48.1336 170.806 48.4736C170.764 48.8137 170.692 49.1228 170.651 49.401C170.599 49.6792 170.558 49.9162 170.517 50.112C170.476 50.3077 170.455 50.4623 170.424 50.5756C170.404 50.6787 170.383 50.7405 170.383 50.7405C170.383 50.7405 170.332 50.9672 170.229 51.3587C170.187 51.5545 170.125 51.7915 170.064 52.0697C170.033 52.2037 169.992 52.3479 169.94 52.5025C169.899 52.657 169.847 52.8116 169.796 52.9765C169.435 54.3057 168.796 56.0367 168.013 57.7163C167.92 57.9224 167.817 58.1387 167.714 58.3448C167.663 58.4478 167.622 58.5509 167.57 58.6539C167.519 58.757 167.457 58.86 167.405 58.9527C167.189 59.3546 166.983 59.7461 166.777 60.1377C166.56 60.5086 166.344 60.8693 166.138 61.2093C166.035 61.3742 165.942 61.5493 165.839 61.7039C165.736 61.8585 165.633 62.013 165.54 62.1573C165.344 62.4458 165.169 62.7137 165.015 62.9507C164.86 63.1877 164.706 63.3834 164.582 63.5483C164.335 63.878 164.201 64.0635 164.201 64.0635C164.201 64.0635 164.159 64.115 164.098 64.1974C164.036 64.2799 163.943 64.4138 163.809 64.5684C163.686 64.723 163.521 64.9187 163.345 65.1351C163.253 65.2485 163.16 65.3618 163.057 65.4854C162.954 65.6091 162.861 65.743 162.738 65.8667C161.82 66.928 160.522 68.2675 159.1 69.504C157.689 70.7405 156.143 71.8224 154.968 72.6055C154.36 72.9764 153.866 73.2958 153.516 73.5019C153.155 73.6977 152.949 73.811 152.949 73.811C152.949 73.811 152.743 73.9244 152.382 74.1304C152.289 74.182 152.186 74.2335 152.083 74.2953C151.97 74.3468 151.846 74.4087 151.723 74.4705C151.465 74.5941 151.177 74.7384 150.857 74.9032C149.569 75.5009 147.828 76.2531 146.004 76.7992C145.551 76.9537 145.097 77.0671 144.644 77.1907C144.417 77.2525 144.19 77.3144 143.974 77.3762C143.758 77.438 143.531 77.4792 143.315 77.5307C142.882 77.6235 142.459 77.7162 142.058 77.809C141.656 77.8811 141.274 77.9429 140.924 78.0047C140.749 78.0356 140.584 78.0666 140.419 78.0872C140.254 78.1181 140.1 78.1284 139.956 78.149C139.667 78.1799 139.42 78.2108 139.203 78.2417C138.791 78.2932 138.554 78.3241 138.554 78.3241L138.513 77.9738C138.513 77.9738 138.75 77.9429 139.162 77.8914L139.172 77.9017Z" fill="#728A96"/>
<path d="M36.1493 77.1084C35.9329 77.1084 35.6959 77.1187 35.4486 77.1496C35.3868 77.1599 35.3249 77.1702 35.2631 77.1805C35.2013 77.1805 35.1395 77.2011 35.0674 77.2114C34.9437 77.232 34.8098 77.2629 34.6758 77.3042C34.1297 77.4484 33.5424 77.6854 32.9447 77.9636C32.3677 78.2212 31.7804 78.5097 31.2549 78.7776C30.7294 79.0455 30.2657 79.3031 29.936 79.4783C29.6063 79.6534 29.4105 79.7668 29.4105 79.7668C29.4105 79.7668 29.462 79.7874 29.5651 79.8286C29.6681 79.8595 29.8123 79.9213 29.9875 79.9729C30.3585 80.0759 30.8736 80.2099 31.461 80.3335C31.6052 80.3644 31.7598 80.3953 31.9143 80.4159C32.0689 80.4365 32.2338 80.4572 32.3883 80.4778C32.7078 80.5087 33.0375 80.5396 33.3672 80.5499C34.0163 80.5808 34.6861 80.4984 35.2528 80.3438C36.3863 80.0347 37.159 79.334 37.633 78.757C38.1173 78.1697 38.3131 77.6854 38.3131 77.6854C38.3131 77.6854 37.9215 77.4381 37.2827 77.2835C36.9633 77.2114 36.582 77.129 36.139 77.129L36.1493 77.1084Z" fill="#728A96"/>
<path d="M37.8909 72.6054C37.6229 72.1829 37.2726 71.812 36.912 71.4513C36.7368 71.2762 36.541 71.1113 36.3556 70.9568C36.2628 70.8846 36.1701 70.8022 36.0774 70.7404C35.9846 70.6682 35.9022 70.5961 35.8095 70.524C35.4591 70.2561 35.1397 70.0397 34.913 69.8954C34.6863 69.7409 34.5421 69.6482 34.5421 69.6482C34.5421 69.6482 34.5421 69.8542 34.5524 70.184C34.5524 70.524 34.5936 70.9774 34.6657 71.5029C34.7378 72.0181 34.8512 72.6054 35.0161 73.1721C35.1809 73.7182 35.4179 74.254 35.6961 74.6971C35.7579 74.8104 35.8404 74.9135 35.9125 75.0165C35.9434 75.068 35.9846 75.1092 36.0258 75.1608C36.0671 75.202 36.098 75.2432 36.1392 75.2844C36.304 75.4493 36.4689 75.5832 36.6441 75.7069C36.8089 75.8305 36.9841 75.9232 37.149 76.0057C37.3138 76.0881 37.4787 76.1602 37.6333 76.2015C38.2515 76.3766 38.6946 76.3457 38.6946 76.3457C38.6946 76.3457 38.7667 75.8202 38.6946 75.0989C38.6533 74.7383 38.5915 74.3261 38.4576 73.9037C38.4267 73.8006 38.3854 73.6873 38.3442 73.5843C38.303 73.4709 38.2618 73.3679 38.2206 73.2545C38.1278 73.0381 38.0145 72.8218 37.8805 72.6157L37.8909 72.6054Z" fill="#728A96"/>
<path d="M29.1223 73.8522C29.1223 73.8522 29.0295 73.7697 28.9574 73.7079C28.8132 73.5843 28.5968 73.4091 28.3083 73.2545C28.164 73.1721 28.0095 73.0897 27.824 73.0175C27.6488 72.9454 27.4427 72.8836 27.247 72.8115C26.8348 72.6878 26.3402 72.6157 25.7735 72.626C25.485 72.626 25.1965 72.6466 24.8874 72.6775C24.5782 72.7084 24.2588 72.7496 23.9394 72.8012C23.62 72.8527 23.2903 72.9145 22.9811 72.9763C22.672 73.0382 22.3629 73.1 22.0744 73.1618C21.4974 73.2855 20.9822 73.3988 20.6215 73.4915C20.2506 73.5843 20.0342 73.6358 20.0342 73.6358C20.0342 73.6358 20.2197 73.7697 20.5494 73.9655C20.704 74.0686 20.8997 74.1819 21.1161 74.3055C21.2192 74.3674 21.3428 74.4395 21.4665 74.5013C21.5901 74.5631 21.7241 74.625 21.858 74.6971C22.1259 74.8207 22.4144 74.9547 22.7132 75.068C22.8678 75.1299 23.012 75.1814 23.1666 75.2432C23.2387 75.2741 23.3212 75.305 23.3933 75.3256C23.4757 75.3462 23.5478 75.3669 23.6303 75.3978C24.2691 75.5729 24.908 75.6863 25.4953 75.6863C26.6905 75.6553 27.6076 75.202 28.2361 74.7692C28.5453 74.5528 28.7926 74.3364 28.9471 74.1716C29.112 74.0067 29.1944 73.9037 29.1944 73.9037C29.1944 73.9037 29.1738 73.8831 29.1326 73.8522H29.1223Z" fill="#728A96"/>
<path d="M27.4735 70.3696C27.6178 70.8538 27.8547 71.2557 28.1123 71.5854C28.236 71.7503 28.3803 71.8842 28.5142 71.9976C28.6585 72.1109 28.7924 72.214 28.9264 72.2964C29.1943 72.4613 29.4416 72.5746 29.6167 72.6364C29.6992 72.6673 29.7816 72.6879 29.8331 72.6982C29.8846 72.7086 29.9155 72.7189 29.9155 72.7189C29.9155 72.7189 29.9671 72.5952 30.0392 72.3891C30.1113 72.1831 30.1937 71.8842 30.2556 71.5133C30.3895 70.792 30.4513 69.8338 30.1731 68.9064C30.0392 68.4324 29.8125 67.9687 29.5549 67.5463C29.3076 67.1135 29.0191 66.7014 28.7512 66.3613C28.6172 66.1965 28.4936 66.0213 28.3803 65.8873C28.2669 65.7431 28.1639 65.6194 28.0711 65.5164C27.896 65.3103 27.7723 65.197 27.7723 65.197C27.7723 65.197 27.7105 65.3928 27.6384 65.7122C27.5559 66.0316 27.4632 66.4953 27.3911 67.0105C27.3499 67.2784 27.3189 67.5566 27.2983 67.8451C27.2777 68.1233 27.2777 68.4118 27.2777 68.7106C27.2777 68.9991 27.2983 69.2876 27.3293 69.5762C27.3705 69.8544 27.4117 70.1326 27.4941 70.3696H27.4735Z" fill="#728A96"/>
<path d="M20.9301 67.3404C20.8271 67.1858 20.6725 66.9591 20.4355 66.7325C20.2088 66.4955 19.91 66.2585 19.5391 66.0318C19.1785 65.8051 18.7354 65.599 18.179 65.4548C17.9935 65.4033 17.7977 65.362 17.6019 65.3311C17.4062 65.2899 17.2001 65.259 16.994 65.2281C15.9636 65.0735 14.789 65.0117 13.9028 64.9602C13.0064 64.9087 12.3676 64.8984 12.3676 64.8984C12.3676 64.8984 12.5839 65.1766 12.9549 65.5784C13.3155 65.9906 13.8719 66.4955 14.4902 66.9798C14.5829 67.0519 14.6859 67.124 14.7787 67.1961C14.8302 67.2373 14.8817 67.2683 14.9332 67.3095C14.9848 67.3404 15.0363 67.3713 15.0878 67.4125C15.2939 67.5465 15.5102 67.6701 15.7266 67.7938C15.943 67.9071 16.1594 68.0205 16.3758 68.1029C16.5922 68.1956 16.8085 68.278 17.0249 68.3296C18.179 68.6181 19.1888 68.4429 19.91 68.1853C20.6416 67.9277 21.0847 67.6083 21.0847 67.6083C21.0847 67.6083 21.0332 67.5053 20.9301 67.3507V67.3404Z" fill="#728A96"/>
<path d="M21.3119 65.9906C21.518 66.2276 21.7241 66.4027 21.8786 66.5058C22.0332 66.6088 22.1362 66.6603 22.1362 66.6603C22.1362 66.6603 22.4866 66.2482 22.8163 65.599C23.1563 64.9396 23.4963 64.0328 23.486 63.0643C23.486 62.7036 23.4551 62.3327 23.383 61.9823C23.3521 61.8072 23.3006 61.632 23.249 61.4568C23.1975 61.292 23.1563 61.1065 23.1048 60.9416C23.0121 60.6531 22.9193 60.3749 22.8163 60.1276C22.7854 60.0658 22.7648 60.004 22.7441 59.9422C22.7132 59.8803 22.7029 59.8288 22.672 59.767C22.6308 59.6536 22.5896 59.5506 22.5484 59.4579C22.3835 59.0766 22.2599 58.8499 22.2599 58.8499C22.2599 58.8499 21.9404 59.3239 21.5695 60.0555C21.4768 60.241 21.384 60.4264 21.281 60.6428C21.2295 60.7459 21.1883 60.8592 21.1367 60.9622C21.0852 61.0653 21.0543 61.1786 21.0028 61.292C20.8379 61.735 20.6937 62.2193 20.5906 62.6933C20.5494 62.8788 20.5185 63.0539 20.4979 63.2291C20.4773 63.4043 20.467 63.5794 20.467 63.7443C20.467 64.2595 20.57 64.7026 20.7246 65.0838C20.8894 65.4548 21.1058 65.7536 21.3119 65.9906Z" fill="#728A96"/>
<path d="M13.2232 59.6022C13.4499 59.6125 13.656 59.6022 13.8517 59.6022C14.6245 59.5506 15.1397 59.3652 15.1397 59.3652C15.1397 59.3652 15.1191 59.2518 15.0573 59.0767C15.0264 58.9839 14.9852 58.8809 14.9337 58.7572C14.8924 58.6336 14.8306 58.4996 14.7585 58.3554C14.6039 58.0669 14.3979 57.7577 14.099 57.4383C14.0269 57.3662 13.9548 57.2941 13.8724 57.2013C13.7899 57.1189 13.7075 57.0468 13.6148 56.9643C13.4293 56.8098 13.2129 56.6552 12.9759 56.511C12.7389 56.3667 12.471 56.2328 12.1825 56.0988C11.9146 55.9649 11.6158 55.8412 11.3273 55.7176C10.74 55.4703 10.1114 55.2539 9.54471 55.0581C8.98829 54.8623 8.50401 54.6975 8.14337 54.5841C7.78273 54.4708 7.56635 54.3987 7.56635 54.3987C7.56635 54.3987 7.64878 54.6047 7.80334 54.9448C7.87547 55.1096 7.97851 55.3157 8.09185 55.5321C8.2155 55.7485 8.34945 55.9855 8.50401 56.2328C8.65857 56.4801 8.83374 56.7377 9.0089 56.9953C9.05012 57.0571 9.10164 57.1189 9.15316 57.1807C9.20468 57.2426 9.24589 57.3044 9.30772 57.3662C9.41076 57.4898 9.5138 57.6135 9.62714 57.7268C9.84352 57.9638 10.0702 58.1905 10.3072 58.3966C10.4205 58.4996 10.5442 58.6027 10.6678 58.6851C10.7915 58.7675 10.9151 58.85 11.0491 58.9324C11.554 59.2312 12.0692 59.3961 12.5431 59.4888C12.7801 59.5403 13.0171 59.5609 13.2335 59.5712L13.2232 59.6022Z" fill="#728A96"/>
<path d="M15.531 56.8509C15.5825 57.2527 15.6959 57.5928 15.8195 57.8813C15.8814 58.0255 15.9535 58.1492 16.0153 58.2522C16.0771 58.3655 16.1596 58.448 16.2111 58.5201C16.3244 58.6644 16.4172 58.7365 16.4172 58.7365C16.4172 58.7365 16.8705 58.4377 17.3754 57.9019C17.4991 57.7679 17.633 57.6237 17.7567 57.4588C17.8906 57.2939 18.0246 57.1188 18.1482 56.923C18.3955 56.5417 18.6119 56.1193 18.7562 55.6556C18.7974 55.5423 18.818 55.4186 18.8489 55.295C18.8798 55.1713 18.9004 55.0477 18.921 54.924C18.9622 54.6767 18.9828 54.4294 18.9931 54.1821C18.9931 53.6876 19.0137 53.2033 18.9725 52.7705C18.9519 52.5541 18.9313 52.3584 18.9107 52.1729C18.9004 51.9874 18.8798 51.8329 18.8592 51.6989C18.8283 51.431 18.7974 51.2764 18.7974 51.2764C18.7974 51.2764 18.6428 51.4104 18.3955 51.6474C18.1482 51.8844 17.8082 52.2141 17.4476 52.616C17.0972 53.0178 16.7366 53.4815 16.4172 53.9761C16.2523 54.2234 16.108 54.481 15.9741 54.7386C15.8504 54.9859 15.7474 55.2435 15.6753 55.4907C15.6031 55.738 15.5619 55.975 15.531 56.2017C15.5207 56.3151 15.5104 56.4284 15.5104 56.5315C15.5104 56.583 15.5104 56.6345 15.5104 56.686C15.5104 56.7375 15.5207 56.789 15.531 56.8406V56.8509Z" fill="#728A96"/>
<path d="M8.72024 49.3805C8.93662 49.5351 9.1633 49.6588 9.37969 49.7721C9.82276 49.9885 10.2452 50.1121 10.6265 50.1946C11.3787 50.3491 11.9248 50.3079 11.9248 50.3079C11.9248 50.3079 11.9866 49.8648 11.8423 49.2363C11.8114 49.0817 11.7496 48.9169 11.6981 48.7314C11.6466 48.5562 11.5744 48.3708 11.4714 48.175C11.3787 47.9895 11.2653 47.7834 11.1211 47.5877C11.0489 47.4846 10.9768 47.3919 10.8944 47.2888C10.8532 47.2373 10.8119 47.1858 10.7604 47.1343C10.7192 47.0828 10.678 47.0313 10.6265 46.99C9.88458 46.1863 8.68932 45.3723 7.74136 44.7026C7.25708 44.3728 6.82431 44.0843 6.51519 43.8782C6.19577 43.6722 6 43.5588 6 43.5588C6 43.5588 6.03091 43.7855 6.09273 44.1461C6.15456 44.5068 6.24729 45.0117 6.40185 45.5681C6.56671 46.1245 6.7934 46.7324 7.0613 47.3095C7.12313 47.4537 7.20556 47.598 7.28799 47.7319C7.37042 47.8659 7.45285 47.9998 7.53528 48.1338C7.71045 48.3914 7.89592 48.6284 8.0917 48.8344C8.29777 49.0405 8.49355 49.226 8.72024 49.3805Z" fill="#728A96"/>
<path d="M13.3261 50.0399C13.3261 50.0399 13.8516 49.8647 14.4905 49.4834C14.8202 49.2877 15.1705 49.0404 15.5106 48.7416C15.6754 48.587 15.8403 48.4324 15.9948 48.247C16.1597 48.0718 16.3143 47.876 16.4482 47.6699C16.5822 47.4639 16.7058 47.2372 16.8089 47.0105C16.9119 46.7838 16.984 46.5468 17.0768 46.3098C17.2519 45.8358 17.3653 45.3619 17.4477 44.9394C17.5507 44.5169 17.6126 44.146 17.6538 43.8781C17.6847 43.6102 17.695 43.4453 17.695 43.4453C17.695 43.4453 17.5095 43.5381 17.2107 43.6926C16.9119 43.8575 16.4997 44.0945 16.0361 44.383C15.5827 44.6818 15.0778 45.0424 14.645 45.434C14.202 45.8255 13.8001 46.2583 13.5116 46.7014C13.357 46.9178 13.2643 47.1341 13.1819 47.3505C13.0994 47.5669 13.0479 47.773 13.0067 47.9688C12.9655 48.1645 12.9552 48.3603 12.9449 48.5355C12.9449 48.7106 12.9655 48.8858 12.9861 49.0301C13.0891 49.638 13.3158 50.0192 13.3158 50.0192L13.3261 50.0399Z" fill="#728A96"/>
<path d="M7.52493 35.8619C7.55584 36.0989 7.60736 36.3359 7.65888 36.5729C7.77222 37.0366 7.89587 37.4797 8.11225 37.8609C8.39046 38.3761 8.72018 38.778 9.08082 39.0974C9.44146 39.4168 9.8021 39.6538 10.1524 39.829C10.8428 40.1793 11.3786 40.2823 11.3786 40.2823C11.3786 40.2823 11.4198 40.1793 11.4713 39.9938C11.5126 39.8084 11.5847 39.5508 11.6156 39.2313C11.6465 38.9119 11.6362 38.541 11.5538 38.1185C11.4816 37.7064 11.3477 37.2427 11.0901 36.7584C11.0077 36.5935 10.9046 36.4287 10.8016 36.2638C10.7501 36.1814 10.6985 36.0989 10.6367 36.0062C10.5852 35.9238 10.5234 35.831 10.4718 35.7486C10.1833 35.3261 9.86392 34.8934 9.5342 34.4915C9.21477 34.0794 8.88505 33.6878 8.60684 33.3581C8.05043 32.6883 7.62797 32.2144 7.62797 32.2144C7.62797 32.2144 7.56614 32.5544 7.49402 33.0902C7.4528 33.3581 7.4425 33.6775 7.43219 34.0278C7.43219 34.3782 7.43219 34.7491 7.43219 35.1407C7.43219 35.3777 7.47341 35.6147 7.50432 35.8619H7.52493Z" fill="#728A96"/>
<path d="M16.4788 38.9738C16.5509 38.912 16.6128 38.8502 16.6746 38.7883C16.7364 38.7265 16.8085 38.6544 16.8704 38.5926C17.0043 38.4586 17.128 38.3144 17.2413 38.1701C17.3546 38.0258 17.4577 37.8713 17.5607 37.727C17.6638 37.5622 17.7668 37.4179 17.8595 37.2737C18.0244 37.0161 18.1686 36.7585 18.2923 36.5215C18.3541 36.3978 18.4159 36.2845 18.4675 36.1814C18.519 36.0681 18.5705 35.9754 18.622 35.8826C18.8075 35.5117 18.9002 35.2747 18.9002 35.2747C18.9002 35.2747 18.3232 35.3674 17.5092 35.5838C17.3134 35.6353 17.0867 35.6972 16.8704 35.7693C16.654 35.8414 16.4273 35.9238 16.1903 36.0166C15.7266 36.1917 15.2629 36.4081 14.8302 36.6554C14.4902 36.8409 14.2017 37.0573 13.9441 37.2737C13.5525 37.6137 13.264 37.9846 13.0785 38.3556C12.9034 38.7162 12.8106 39.0768 12.7694 39.3757C12.7282 39.6848 12.7179 39.9424 12.7488 40.1278C12.7694 40.3133 12.8003 40.4164 12.8003 40.4164C12.8003 40.4164 13.3464 40.3854 14.0677 40.1897C14.789 39.9939 15.7266 39.623 16.4685 38.9738H16.4788Z" fill="#728A96"/>
<path d="M11.9045 28.7727C12.1621 29.1745 12.4506 29.5146 12.7288 29.7722C13.2852 30.2874 13.7695 30.5347 13.7695 30.5347C13.7695 30.5347 13.8416 30.4419 13.9446 30.2874C14.0477 30.1225 14.1713 29.8855 14.295 29.5867C14.4186 29.2879 14.5217 28.9272 14.5732 28.5048C14.5938 28.2987 14.5938 28.072 14.5938 27.835C14.5938 27.598 14.5732 27.3507 14.5217 27.0828C14.4701 26.8149 14.398 26.5367 14.3156 26.2482C14.2744 26.104 14.2228 25.9597 14.1713 25.8052C14.1198 25.6609 14.0786 25.5166 14.0271 25.3621C13.821 24.7748 13.584 24.1874 13.3573 23.6516C13.244 23.3837 13.1409 23.1364 13.0379 22.9098C12.9452 22.6831 12.8524 22.4873 12.7803 22.3224C12.636 21.9824 12.5433 21.7866 12.5433 21.7866C12.5433 21.7866 12.43 21.9824 12.2754 22.3224C12.193 22.4873 12.1105 22.6934 12.0178 22.9201C11.9251 23.157 11.8323 23.4146 11.7499 23.6825C11.7087 23.8165 11.6572 23.9608 11.616 24.105C11.5747 24.2493 11.5335 24.3935 11.5026 24.5584C11.4408 24.8675 11.379 25.1766 11.3377 25.496C11.2965 25.8155 11.2656 26.1246 11.2656 26.4234C11.2656 26.7325 11.2965 27.0313 11.3481 27.3095C11.4614 27.8659 11.6572 28.3502 11.9045 28.7521V28.7727Z" fill="#728A96"/>
<path d="M19.7044 30.2768C19.9208 30.1428 20.1372 29.9883 20.3433 29.8337C20.539 29.6791 20.7245 29.5143 20.91 29.3494C21.0851 29.1846 21.2706 29.03 21.4252 28.8754C21.5797 28.7209 21.724 28.5663 21.8476 28.4324C21.9095 28.3602 21.9713 28.2984 22.0228 28.2366C22.0743 28.1748 22.1258 28.1232 22.1774 28.0717C22.3628 27.8657 22.4659 27.742 22.4659 27.742C22.4659 27.742 22.2598 27.7214 21.9095 27.6905C21.5591 27.6699 21.0748 27.639 20.5287 27.6596C19.9929 27.6802 19.3747 27.7317 18.7771 27.8244C18.6225 27.8553 18.4783 27.876 18.3237 27.9069C18.1794 27.9378 18.0352 27.979 17.9012 28.0202C17.623 28.1026 17.3551 28.1954 17.1181 28.3087C16.8811 28.4221 16.6648 28.5457 16.469 28.6797C16.2732 28.8136 16.1186 28.9682 15.9744 29.1124C15.6962 29.4112 15.5004 29.7307 15.3665 30.0089C15.2325 30.2871 15.181 30.5447 15.1501 30.7198C15.1192 30.9053 15.1089 31.0084 15.1089 31.0084C15.1089 31.0084 15.6447 31.132 16.3969 31.132C16.7781 31.132 17.2109 31.1114 17.6539 31.029C18.1176 30.9568 18.5916 30.8229 19.0553 30.6168C19.282 30.5138 19.4983 30.3901 19.7147 30.2459L19.7044 30.2768Z" fill="#728A96"/>
<path d="M17.3136 19.9935C17.4476 20.4469 17.633 20.8385 17.8288 21.1682C18.2101 21.807 18.6119 22.1677 18.6119 22.1677C18.6119 22.1677 19.0035 21.9101 19.395 21.3949C19.498 21.2609 19.5908 21.1167 19.6835 20.9518C19.7762 20.7973 19.8793 20.6118 19.9617 20.4263C20.1266 20.0348 20.2502 19.5711 20.3018 19.025C20.3636 18.4892 20.3533 17.8812 20.3018 17.2527C20.2502 16.6242 20.1987 16.0059 20.1266 15.4289C20.0545 14.8622 19.9823 14.3573 19.9308 13.9967C19.869 13.636 19.8381 13.4197 19.8381 13.4197C19.8381 13.4197 19.7969 13.4609 19.7247 13.533C19.6629 13.6154 19.5599 13.7288 19.4362 13.873C19.1992 14.1615 18.8695 14.5737 18.5398 15.0477C18.2204 15.5422 17.9009 16.109 17.6433 16.686C17.396 17.2733 17.2209 17.8812 17.159 18.448C17.1487 18.5922 17.1384 18.7262 17.1384 18.8601C17.1384 18.9941 17.1487 19.128 17.159 19.262C17.19 19.5196 17.2415 19.7669 17.3033 19.9935H17.3136Z" fill="#728A96"/>
<path d="M24.4132 23.4556C24.5368 23.4144 24.6502 23.3732 24.7738 23.3217C24.8356 23.3011 24.8872 23.2805 24.949 23.2495C25.0108 23.2289 25.0726 23.198 25.1345 23.1774C25.6187 22.9816 26.0515 22.7447 26.4328 22.5283C26.8243 22.3222 27.154 22.1161 27.3807 21.9616C27.4941 21.8791 27.5868 21.8173 27.6486 21.7761C27.7104 21.7349 27.7517 21.7143 27.7517 21.7143C27.7517 21.7143 27.7001 21.6937 27.6074 21.6627C27.5147 21.6318 27.3807 21.5803 27.2262 21.5288C26.9067 21.4257 26.4431 21.2815 25.9073 21.1578C25.6394 21.096 25.3611 21.0342 25.0623 20.9827C24.9181 20.9621 24.7635 20.9312 24.6193 20.9106C24.475 20.8899 24.3204 20.8796 24.1762 20.8693C23.5786 20.8178 22.9706 20.8178 22.4348 20.9106C21.9093 21.0033 21.4766 21.1888 21.1159 21.3948C20.9305 21.4979 20.7759 21.6112 20.6316 21.7349C20.4977 21.8585 20.3843 21.9822 20.2813 22.1058C19.8795 22.5901 19.7352 23.0023 19.7352 23.0023C19.7352 23.0023 20.2195 23.2598 20.9511 23.4659C21.3117 23.569 21.7445 23.6617 22.2081 23.7029C22.6718 23.7441 23.1458 23.7338 23.661 23.6617C23.9186 23.6205 24.1659 23.5587 24.4132 23.4762V23.4556Z" fill="#728A96"/>
<path d="M25.8146 14.7589C25.9073 14.965 25.9794 15.0783 25.9794 15.0783C25.9794 15.0783 26.0103 15.0783 26.0618 15.0474C26.1134 15.0268 26.1855 14.9959 26.2679 14.9547C26.4431 14.8722 26.6904 14.7383 26.948 14.5425C27.4632 14.1406 28.102 13.543 28.5039 12.5126C28.6378 12.1726 28.7718 11.8016 28.8748 11.4101C29.0088 10.9155 29.1221 10.39 29.2149 9.8851C29.3179 9.39052 29.4106 8.90623 29.4725 8.47346C29.6167 7.61824 29.6888 7.01031 29.6888 7C29.6888 7 29.3797 7.18547 28.9263 7.50489C28.6997 7.65945 28.4421 7.85523 28.1535 8.07161C27.8856 8.2983 27.5971 8.5559 27.3086 8.8341C27.1335 8.99897 26.9686 9.17413 26.8037 9.3596C26.7625 9.40082 26.7213 9.45234 26.6801 9.49355C26.6389 9.53477 26.608 9.58629 26.5667 9.63781C26.4946 9.73054 26.4225 9.83358 26.3504 9.92632C26.0618 10.3179 25.8249 10.7197 25.66 11.1216C25.5466 11.3792 25.4745 11.6574 25.4333 11.9047C25.3921 12.1623 25.3612 12.4096 25.3612 12.6466C25.3509 13.1205 25.423 13.543 25.5157 13.9037C25.6085 14.2643 25.7218 14.5528 25.8146 14.7589Z" fill="#728A96"/>
<path d="M32.6459 17.696C32.955 17.6341 33.2435 17.562 33.5114 17.4899C33.7793 17.4281 34.0266 17.3662 34.2327 17.3044C34.6345 17.1808 34.8921 17.088 34.8921 17.088C34.8921 17.088 34.4284 16.7377 33.7175 16.3152C33.3671 16.0989 32.9447 15.8722 32.4913 15.6558C32.0482 15.4497 31.5743 15.2642 31.09 15.12C30.719 15.0066 30.3584 14.9242 30.0081 14.8933C28.9571 14.8006 28.1224 15.0994 27.5969 15.4703C27.329 15.6455 27.1333 15.831 27.0096 15.9546C26.9478 16.0164 26.8963 16.0783 26.8654 16.1195C26.8344 16.1607 26.8241 16.1813 26.8241 16.1813C26.8241 16.1813 26.9169 16.274 27.092 16.4183C27.2672 16.5625 27.5248 16.748 27.8545 16.9438C28.174 17.1396 28.5655 17.3456 28.988 17.5105C29.2044 17.5929 29.431 17.6651 29.668 17.7166C29.905 17.7784 30.142 17.8196 30.3996 17.8505C31.1518 17.9433 31.9246 17.8196 32.6459 17.7063V17.696Z" fill="#728A96"/>
<path d="M43.6812 77.9017C43.4751 77.8811 43.2278 77.8502 42.9393 77.809C42.7951 77.7883 42.6405 77.778 42.486 77.7471C42.3314 77.7162 42.1562 77.6853 41.9914 77.6544C41.641 77.5926 41.2701 77.5307 40.8682 77.4586C40.4767 77.3659 40.0542 77.2731 39.6215 77.1804C39.4051 77.1289 39.1784 77.0877 38.962 77.0258C38.7456 76.964 38.5189 76.9022 38.3026 76.8404C37.8595 76.7167 37.3958 76.6034 36.9527 76.4488C35.1496 75.913 33.4185 75.1608 32.1511 74.5632C31.842 74.4086 31.5432 74.2644 31.2959 74.1407C31.1619 74.0789 31.0486 74.0171 30.9353 73.9656C30.8219 73.9141 30.7292 73.8522 30.6364 73.8007C30.2758 73.6049 30.08 73.4916 30.08 73.4916C30.08 73.4916 29.8739 73.3783 29.5133 73.1825C29.163 72.9764 28.6684 72.657 28.0708 72.2963C26.9064 71.5235 25.3711 70.4519 23.9801 69.2258C22.5788 68.0099 21.2908 66.6704 20.384 65.6297C20.2604 65.506 20.1676 65.3721 20.0646 65.2485C19.9616 65.1248 19.8688 65.0115 19.7864 64.8981C19.6112 64.6817 19.4567 64.4963 19.3227 64.3314C19.1888 64.1768 19.1063 64.0429 19.0445 63.9605C18.9827 63.8677 18.9415 63.8265 18.9415 63.8265C18.9415 63.8265 18.8075 63.641 18.5705 63.3216C18.4572 63.1568 18.3026 62.9713 18.1481 62.7343C17.9935 62.4973 17.8183 62.2397 17.6226 61.9512C17.5298 61.8069 17.4268 61.6627 17.3238 61.5081C17.2207 61.3536 17.128 61.1887 17.0249 61.0135C16.8189 60.6735 16.6128 60.3129 16.3861 59.9522C16.1903 59.571 15.9739 59.1794 15.7679 58.7879C15.7163 58.6848 15.6648 58.5921 15.603 58.4891C15.5515 58.386 15.5103 58.283 15.4587 58.1799C15.366 57.9739 15.263 57.7678 15.1702 57.5617C14.4078 55.9028 13.7689 54.182 13.4083 52.8631C13.3568 52.6983 13.3155 52.5437 13.264 52.3891C13.2228 52.2449 13.1713 52.1006 13.1507 51.9667C13.0889 51.6988 13.027 51.4618 12.9858 51.266C12.8931 50.8745 12.8416 50.6581 12.8416 50.6581C12.8416 50.6581 12.8313 50.6066 12.8003 50.5035C12.7797 50.4005 12.7488 50.2459 12.7179 50.0501C12.6767 49.8544 12.6355 49.6174 12.5943 49.3495C12.5428 49.0816 12.4706 48.7725 12.4397 48.4324C12.3985 48.0924 12.347 47.7318 12.2955 47.3402C12.2852 47.2475 12.2645 47.1444 12.2542 47.0517C12.2439 46.9487 12.2336 46.8559 12.2233 46.7426C12.213 46.5365 12.1924 46.3304 12.1718 46.114C12.0791 45.2691 12.0791 44.3521 12.0585 43.4453C12.0894 42.5386 12.0894 41.6318 12.1718 40.7766C12.1821 40.5705 12.2027 40.3541 12.2233 40.1481C12.2233 40.045 12.2336 39.942 12.2542 39.8492C12.2645 39.7462 12.2852 39.6535 12.2955 39.5504C12.347 39.1692 12.3985 38.7982 12.4397 38.4582C12.4809 38.1182 12.5428 37.8194 12.5943 37.5412C12.6458 37.2733 12.687 37.0363 12.7179 36.8405C12.7591 36.6447 12.7797 36.4902 12.8003 36.3871C12.8313 36.2841 12.8416 36.2326 12.8416 36.2326C12.8416 36.2326 12.8931 36.0162 12.9858 35.6246C13.027 35.4289 13.0889 35.1919 13.1507 34.924C13.1816 34.79 13.2228 34.6458 13.264 34.5015C13.3052 34.3469 13.3568 34.1924 13.4083 34.0275C13.7689 32.7086 14.4078 30.9982 15.1702 29.3289C15.2733 29.1228 15.366 28.9168 15.4587 28.7107C15.5103 28.6076 15.5515 28.5046 15.603 28.4016C15.6545 28.2985 15.706 28.2058 15.7679 28.1028C15.9842 27.7009 16.1903 27.3094 16.3861 26.9384C16.6025 26.5675 16.8189 26.2068 17.0249 25.8771C17.128 25.7122 17.2207 25.5371 17.3238 25.3825C17.4268 25.228 17.5298 25.0837 17.6226 24.9394C17.808 24.6509 17.9935 24.3933 18.1481 24.1563C18.3026 23.9194 18.4572 23.7339 18.5705 23.569C18.8075 23.2393 18.9415 23.0641 18.9415 23.0641C18.9415 23.0641 18.9827 23.0126 19.0445 22.9302C19.1063 22.8477 19.1991 22.7138 19.3227 22.5592C19.4464 22.4047 19.6112 22.2089 19.7864 21.9925C19.8791 21.8792 19.9719 21.7658 20.0646 21.6422C20.1676 21.5185 20.2707 21.3949 20.384 21.2609C21.2908 20.2202 22.5788 18.8807 23.9801 17.6649C25.3814 16.4387 26.9064 15.3671 28.0708 14.5943C28.6684 14.2337 29.163 13.9142 29.5133 13.7082C29.8739 13.5124 30.08 13.3991 30.08 13.3991C30.08 13.3991 30.2861 13.2857 30.6364 13.0899C30.7292 13.0384 30.8219 12.9869 30.9353 12.9251C31.0486 12.8736 31.1619 12.8117 31.2959 12.7499C31.3783 12.7087 31.4711 12.6675 31.5638 12.616H31.5844C31.8111 12.6366 32.1305 12.6469 32.5118 12.616C33.2742 12.5851 34.2634 12.4202 35.129 11.9462C35.5823 11.7195 36.0048 11.4001 36.3757 11.0601C36.5509 10.8849 36.7467 10.72 36.9218 10.5449C37.097 10.38 37.2516 10.2048 37.3958 10.04C37.674 9.71026 37.9316 9.42175 38.0965 9.20537C38.2613 8.98898 38.3541 8.85503 38.3541 8.85503C38.3541 8.85503 38.148 8.85503 37.7977 8.84473C37.4473 8.84473 36.9631 8.84473 36.4169 8.89625C36.283 8.90655 36.1387 8.91685 35.9945 8.93746C35.8502 8.95807 35.706 8.97868 35.5617 8.99929C35.2732 9.0405 34.9744 9.10233 34.6859 9.16415C34.0986 9.3084 33.5112 9.48357 33.0579 9.74117C32.5942 9.98846 32.2335 10.2976 31.9656 10.6067C31.708 10.9261 31.5432 11.2455 31.4195 11.5444C31.3062 11.8329 31.2547 12.0905 31.2341 12.2656C31.2341 12.2965 31.2341 12.3378 31.2341 12.3687C31.2032 12.3893 31.1619 12.3996 31.131 12.4202C31.0074 12.482 30.8837 12.5438 30.7704 12.5954C30.657 12.6572 30.5643 12.7087 30.4716 12.7602C30.1109 12.956 29.9049 13.0796 29.9049 13.0796C29.9049 13.0796 29.6988 13.193 29.3381 13.3888C28.9878 13.5948 28.4829 13.9142 27.8853 14.2852C26.7106 15.058 25.165 16.1502 23.7534 17.3867C22.3418 18.6231 21.0435 19.9626 20.1161 21.024C19.9925 21.1476 19.8997 21.2815 19.7967 21.4052C19.6937 21.5288 19.6009 21.6422 19.5082 21.7555C19.3227 21.9719 19.1682 22.1677 19.0445 22.3222C18.9106 22.4768 18.8281 22.6108 18.756 22.6932C18.6942 22.7756 18.653 22.8271 18.653 22.8271C18.653 22.8271 18.519 23.0126 18.2717 23.3423C18.1584 23.5072 18.0038 23.703 17.8389 23.94C17.6844 24.177 17.5092 24.4449 17.3134 24.7334C17.2104 24.8776 17.1177 25.0322 17.0146 25.1867C16.9116 25.3413 16.8189 25.5165 16.7158 25.6813C16.5097 26.0214 16.2934 26.382 16.077 26.7529C15.8709 27.1342 15.6648 27.5257 15.4484 27.9379C15.3969 28.0409 15.3454 28.144 15.2836 28.2367C15.2321 28.3397 15.1908 28.4428 15.1393 28.5458C15.0363 28.7519 14.9436 28.9683 14.8405 29.1744C14.0677 30.8539 13.4186 32.585 13.0579 33.9142C13.0064 34.079 12.9652 34.2336 12.9137 34.3882C12.8725 34.5427 12.821 34.6767 12.79 34.8209C12.7282 35.0888 12.6664 35.3361 12.6252 35.5319C12.5324 35.9234 12.4706 36.1501 12.4706 36.1501C12.4706 36.1501 12.4603 36.212 12.4294 36.315C12.3985 36.418 12.3779 36.5726 12.3367 36.7787C12.3058 36.9744 12.2542 37.2217 12.2027 37.4896C12.1512 37.7678 12.0894 38.077 12.0482 38.417C12.0069 38.757 11.9554 39.128 11.9039 39.5195C11.8936 39.6226 11.873 39.7153 11.8627 39.8183C11.8524 39.9214 11.8421 40.0244 11.8318 40.1274C11.8215 40.3335 11.8009 40.5396 11.7803 40.7663C11.6875 41.6215 11.6875 42.5386 11.6566 43.4556C11.6875 44.3727 11.6875 45.2897 11.7803 46.1449C11.8009 46.3613 11.8112 46.5674 11.8318 46.7735C11.8421 46.8765 11.8421 46.9796 11.8627 47.0723C11.873 47.1753 11.8936 47.2784 11.9039 47.3711C11.9554 47.7627 12.0069 48.1336 12.0482 48.4736C12.0894 48.8137 12.1615 49.1228 12.2027 49.401C12.2542 49.6792 12.2955 49.9162 12.3367 50.112C12.3779 50.3077 12.3985 50.4623 12.4294 50.5756C12.45 50.6787 12.4706 50.7405 12.4706 50.7405C12.4706 50.7405 12.5221 50.9672 12.6252 51.3587C12.6664 51.5545 12.7282 51.7915 12.79 52.0697C12.821 52.2037 12.8622 52.3479 12.9137 52.5025C12.9549 52.657 13.0064 52.8116 13.0579 52.9765C13.4186 54.3057 14.0574 56.0367 14.8405 57.7163C14.9333 57.9224 15.0363 58.1387 15.1393 58.3448C15.1908 58.4478 15.2321 58.5509 15.2836 58.6539C15.3351 58.757 15.3969 58.86 15.4484 58.9527C15.6648 59.3546 15.8709 59.7461 16.077 60.1377C16.2934 60.5086 16.5097 60.8693 16.7158 61.2093C16.8189 61.3742 16.9116 61.5493 17.0146 61.7039C17.1177 61.8585 17.2207 62.013 17.3134 62.1573C17.5092 62.4458 17.6844 62.7137 17.8389 62.9507C17.9935 63.1877 18.1481 63.3834 18.2717 63.5483C18.519 63.878 18.653 64.0635 18.653 64.0635C18.653 64.0635 18.6942 64.115 18.756 64.1974C18.8178 64.2799 18.9106 64.4138 19.0445 64.5684C19.1682 64.723 19.333 64.9187 19.5082 65.1351C19.6009 65.2485 19.6937 65.3618 19.7967 65.4854C19.8997 65.6091 19.9925 65.743 20.1161 65.8667C21.0332 66.928 22.3315 68.2675 23.7534 69.504C25.165 70.7405 26.7106 71.8224 27.8853 72.6055C28.4932 72.9764 28.9878 73.2958 29.3381 73.5019C29.6988 73.6977 29.9049 73.811 29.9049 73.811C29.9049 73.811 30.1109 73.9244 30.4716 74.1304C30.5643 74.182 30.6674 74.2335 30.7704 74.2953C30.8837 74.3468 31.0074 74.4087 31.131 74.4705C31.3886 74.5941 31.6771 74.7384 31.9966 74.9032C33.2845 75.5009 35.0259 76.2531 36.8497 76.7992C37.3031 76.9537 37.7565 77.0671 38.2098 77.1907C38.4365 77.2525 38.6632 77.3144 38.8796 77.3762C39.096 77.438 39.3227 77.4792 39.539 77.5307C39.9718 77.6235 40.3943 77.7162 40.7961 77.809C41.198 77.8811 41.5792 77.9429 41.9295 78.0047C42.1047 78.0356 42.2696 78.0666 42.4344 78.0872C42.5993 78.1181 42.7539 78.1284 42.8981 78.149C43.1866 78.1799 43.4339 78.2108 43.6503 78.2417C44.0625 78.2932 44.2995 78.3241 44.2995 78.3241L44.3407 77.9738C44.3407 77.9738 44.1037 77.9429 43.6915 77.8914L43.6812 77.9017Z" fill="#728A96"/>
<path d="M95.7688 22.3771V18.2169C95.7688 18.0642 95.6774 17.9101 95.5448 17.8333L91.6709 15.5974C91.5402 15.5219 91.3572 15.522 91.2272 15.5973L87.3293 17.8333C87.1969 17.9099 87.0832 18.064 87.0832 18.2169V22.3771C87.0832 22.5299 87.1966 22.6841 87.3291 22.7607L91.2138 24.9965C91.2792 25.0343 91.3621 25.0544 91.4417 25.0544C91.5214 25.0544 91.6011 25.0344 91.6663 24.9967L95.5436 22.7605C95.6759 22.6839 95.7688 22.5298 95.7688 22.3771Z" fill="#728A96"/>
<path d="M85.5702 22.4089V18.2373C85.5702 18.0807 85.4953 17.9254 85.3576 17.8508L82.7565 16.439C82.7 16.4084 82.638 16.3923 82.5758 16.3923C82.3728 16.3923 82.2144 16.555 82.2144 16.7628V23.8835C82.2144 24.0912 82.3772 24.254 82.5803 24.254C82.6425 24.254 82.707 24.2379 82.7633 24.2073L85.3567 22.7953C85.4944 22.7208 85.5702 22.5655 85.5702 22.4089Z" fill="#728A96" fill-opacity="0.8"/>
<path d="M92.4351 14.275L96.3245 16.5212C96.3903 16.5591 96.4671 16.5792 96.5475 16.5792C96.6232 16.5792 96.6962 16.5612 96.7593 16.5271L99.3528 15.124C99.4742 15.0584 99.5477 14.9399 99.5495 14.8072C99.5513 14.6744 99.4809 14.554 99.3617 14.4854L92.7622 10.6751C92.7035 10.6412 92.6398 10.6233 92.5743 10.6233C92.372 10.6233 92.2157 10.7856 92.2157 10.9929V13.8914C92.2158 14.0443 92.3026 14.1984 92.4351 14.275Z" fill="#5F5F60" fill-opacity="0.5"/>
<path d="M83.5434 15.1238L86.1373 16.5271C86.2003 16.5612 86.2736 16.5791 86.3493 16.5791C86.4299 16.5791 86.5073 16.559 86.5731 16.521L90.4397 14.2748C90.5719 14.1982 90.6367 14.0441 90.6367 13.8913V10.9929C90.6367 10.7856 90.5024 10.6233 90.3 10.6233C90.2344 10.6233 90.1807 10.6413 90.1223 10.6751L83.5289 14.4852C83.4094 14.554 83.3421 14.6743 83.3438 14.807C83.3455 14.9397 83.422 15.0582 83.5434 15.1238Z" fill="#728A96" fill-opacity="0.8"/>
<path d="M100.294 16.3923C100.232 16.3923 100.178 16.4084 100.122 16.439L97.5121 17.8508C97.3742 17.9252 97.2819 18.0806 97.2819 18.2373V22.4089C97.2819 22.5656 97.3787 22.7209 97.5165 22.7953L100.129 24.2027C100.185 24.2333 100.252 24.245 100.314 24.245C100.422 24.245 100.504 24.2017 100.572 24.1184C100.626 24.0524 100.638 23.9719 100.638 23.8834V16.7628C100.638 16.555 100.497 16.3923 100.294 16.3923Z" fill="#728A96" fill-opacity="0.7"/>
<path d="M90.439 26.3186L86.6076 24.0995C86.4797 24.0256 86.3079 24.0229 86.1775 24.0934L83.5867 25.4967C83.4654 25.5623 83.3935 25.6808 83.3917 25.8134C83.39 25.9461 83.461 26.0664 83.5802 26.135L90.1333 29.9176C90.192 29.9516 90.2581 29.9689 90.3237 29.9689C90.4331 29.9689 90.5111 29.9208 90.5793 29.8358C90.6324 29.7696 90.6365 29.6888 90.6365 29.6007V26.7021C90.6365 26.5495 90.5716 26.3954 90.439 26.3186Z" fill="#5F5F60" fill-opacity="0.6"/>
<path d="M99.3062 25.4974L96.7126 24.0943C96.5827 24.024 96.4046 24.0264 96.2766 24.1003L92.435 26.3195C92.3026 26.396 92.2157 26.5502 92.2157 26.703V29.6015C92.2157 29.8088 92.372 29.9711 92.5743 29.9711C92.6398 29.9711 92.7044 29.9532 92.7631 29.9194L99.3153 26.1361C99.4348 26.0673 99.5048 25.947 99.5031 25.8142C99.5013 25.6813 99.4275 25.5629 99.3062 25.4974Z" fill="#728A96" fill-opacity="0.8"/>
<path d="M41.8255 50.2732L43.9391 38.6368H45.7573L43.6437 50.2732H41.8255ZM36.6664 47.3868L37.0073 45.5686H46.0982L45.7573 47.3868H36.6664ZM37.7346 50.2732L39.8482 38.6368H41.6664L39.5528 50.2732H37.7346ZM37.4051 43.3414L37.7403 41.5232H46.8312L46.496 43.3414H37.4051ZM53.915 38.6368L51.9832 50.2732H49.523L51.0684 40.9721H51.0002L48.057 42.6425L48.4207 40.4607L51.6025 38.6368H53.915ZM66.1963 42.0175C66.2152 41.544 66.0769 41.1785 65.7815 40.9209C65.4898 40.6633 65.0485 40.5346 64.4576 40.5346C64.0561 40.5346 63.7076 40.5914 63.4122 40.705C63.1167 40.8149 62.88 40.9683 62.7019 41.1652C62.5277 41.3584 62.4197 41.5819 62.3781 41.8357C62.3364 42.044 62.3497 42.2258 62.4178 42.3811C62.4898 42.5365 62.6016 42.6709 62.7531 42.7846C62.9084 42.8944 63.0921 42.991 63.3042 43.0743C63.5163 43.1539 63.7417 43.2221 63.9803 43.2789L64.9803 43.5289C65.469 43.6425 65.9084 43.794 66.2985 43.9834C66.6925 44.1728 67.022 44.4058 67.2872 44.6823C67.5561 44.9588 67.7455 45.2846 67.8553 45.6596C67.9652 46.0346 67.9803 46.4645 67.9008 46.9493C67.7796 47.6615 67.4974 48.2789 67.0542 48.8016C66.611 49.3205 66.0296 49.724 65.3099 50.0118C64.5902 50.2959 63.7569 50.438 62.8099 50.438C61.8705 50.438 61.0769 50.294 60.4292 50.0061C59.7815 49.7183 59.3099 49.2921 59.0144 48.7277C58.7228 48.1596 58.6356 47.4569 58.7531 46.6198H61.1338C61.0921 47.0099 61.1489 47.3357 61.3042 47.5971C61.4633 47.8546 61.7 48.0497 62.0144 48.1823C62.3288 48.3111 62.6981 48.3755 63.1224 48.3755C63.5428 48.3755 63.9159 48.3149 64.2417 48.1936C64.5713 48.0724 64.8383 47.9039 65.0428 47.688C65.2474 47.4721 65.3724 47.224 65.4178 46.9436C65.4633 46.6823 65.4235 46.4626 65.2985 46.2846C65.1735 46.1065 64.9728 45.955 64.6963 45.83C64.4235 45.7012 64.0845 45.5876 63.6792 45.4891L62.4633 45.1709C61.5239 44.9323 60.8137 44.5592 60.3326 44.0516C59.8516 43.544 59.6792 42.8603 59.8156 42.0005C59.9368 41.2959 60.2303 40.6804 60.6963 40.1539C61.1659 39.6236 61.7569 39.2126 62.469 38.9209C63.1849 38.6255 63.9671 38.4777 64.8156 38.4777C65.6792 38.4777 66.4084 38.6274 67.0031 38.9266C67.5978 39.2221 68.0315 39.6349 68.3042 40.1652C68.5769 40.6955 68.6603 41.313 68.5542 42.0175H66.1963ZM72.2318 45.2277L71.3909 50.2732H68.9761L70.9079 38.6368H73.2545L72.5272 43.0857H72.6238C72.9041 42.5705 73.2886 42.1671 73.7772 41.8755C74.2659 41.58 74.8435 41.4323 75.5102 41.4323C76.1162 41.4323 76.6219 41.5649 77.0272 41.83C77.4363 42.0914 77.7261 42.4683 77.8965 42.9607C78.067 43.4493 78.0954 44.0346 77.9818 44.7164L77.0499 50.2732H74.6352L75.4874 45.1482C75.5746 44.6103 75.5045 44.1918 75.2772 43.8925C75.0537 43.5933 74.6977 43.4436 74.209 43.4436C73.8795 43.4436 73.5765 43.5137 73.2999 43.6539C73.0234 43.794 72.7905 43.9986 72.6011 44.2675C72.4155 44.5327 72.2924 44.8527 72.2318 45.2277ZM82.898 50.4436C82.0078 50.4436 81.2711 50.2543 80.6877 49.8755C80.1044 49.4929 79.6934 48.9626 79.4548 48.2846C79.2199 47.6027 79.1764 46.8092 79.3241 45.9039C79.468 45.0099 79.7673 44.2277 80.2218 43.5573C80.6764 42.8868 81.254 42.366 81.9548 41.9948C82.6555 41.6198 83.4453 41.4323 84.3241 41.4323C85.2105 41.4323 85.9453 41.6236 86.5286 42.0061C87.112 42.3849 87.523 42.9152 87.7616 43.5971C88.0002 44.2789 88.0457 45.0724 87.898 45.9777C87.7502 46.8679 87.4472 47.6482 86.9889 48.3186C86.5305 48.9891 85.9529 49.5118 85.2559 49.8868C84.5589 50.258 83.773 50.4436 82.898 50.4436ZM83.1366 48.5686C83.5457 48.5686 83.9074 48.4531 84.2218 48.2221C84.54 47.9872 84.8033 47.669 85.0116 47.2675C85.2237 46.8622 85.3714 46.4039 85.4548 45.8925C85.5381 45.3887 85.5438 44.9418 85.4718 44.5516C85.3998 44.1577 85.2483 43.8471 85.0173 43.6198C84.79 43.3925 84.4775 43.2789 84.0798 43.2789C83.6707 43.2789 83.307 43.3963 82.9889 43.6311C82.6707 43.8622 82.4074 44.1804 82.1991 44.5857C81.9908 44.991 81.8449 45.4512 81.7616 45.9664C81.682 46.4664 81.6764 46.9133 81.7445 47.3073C81.8127 47.6974 81.9623 48.0061 82.1934 48.2334C82.4245 48.4569 82.7389 48.5686 83.1366 48.5686ZM88.2275 53.5459L90.2389 41.5459H92.6252L92.3809 43.0118H92.4889C92.6328 42.777 92.8241 42.5383 93.0627 42.2959C93.3052 42.0497 93.6063 41.8452 93.9661 41.6823C94.326 41.5156 94.7483 41.4323 95.2332 41.4323C95.8733 41.4323 96.432 41.599 96.9093 41.9323C97.3866 42.2618 97.7313 42.7599 97.9434 43.4266C98.1593 44.0895 98.1839 44.9209 98.0173 45.9209C97.8582 46.8944 97.5646 47.7164 97.1366 48.3868C96.7123 49.0535 96.2029 49.5592 95.6082 49.9039C95.0173 50.2448 94.3904 50.4152 93.7275 50.4152C93.2578 50.4152 92.8714 50.3376 92.5684 50.1823C92.2692 50.027 92.0362 49.8319 91.8695 49.5971C91.7029 49.3584 91.5855 49.1179 91.5173 48.8755H91.4264L90.6536 53.5459H88.2275ZM91.8809 45.9096C91.7976 46.4285 91.7938 46.8811 91.8695 47.2675C91.9491 47.6539 92.1082 47.955 92.3468 48.1709C92.5855 48.383 92.8998 48.4891 93.29 48.4891C93.6839 48.4891 94.0343 48.3811 94.3411 48.1652C94.648 47.9455 94.9036 47.6425 95.1082 47.2561C95.3127 46.866 95.4586 46.4171 95.5457 45.9096C95.6252 45.4058 95.6271 44.9626 95.5514 44.58C95.4756 44.1974 95.3203 43.8982 95.0855 43.6823C94.8506 43.4664 94.5324 43.3584 94.1309 43.3584C93.7408 43.3584 93.3904 43.4626 93.0798 43.6709C92.773 43.8793 92.5173 44.1747 92.3127 44.5573C92.1082 44.9399 91.9642 45.3906 91.8809 45.9096ZM98.3681 53.5459L100.379 41.5459H102.766L102.522 43.0118H102.629C102.773 42.777 102.965 42.5383 103.203 42.2959C103.446 42.0497 103.747 41.8452 104.107 41.6823C104.467 41.5156 104.889 41.4323 105.374 41.4323C106.014 41.4323 106.573 41.599 107.05 41.9323C107.527 42.2618 107.872 42.7599 108.084 43.4266C108.3 44.0895 108.325 44.9209 108.158 45.9209C107.999 46.8944 107.705 47.7164 107.277 48.3868C106.853 49.0535 106.344 49.5592 105.749 49.9039C105.158 50.2448 104.531 50.4152 103.868 50.4152C103.398 50.4152 103.012 50.3376 102.709 50.1823C102.41 50.027 102.177 49.8319 102.01 49.5971C101.844 49.3584 101.726 49.1179 101.658 48.8755H101.567L100.794 53.5459H98.3681ZM102.022 45.9096C101.938 46.4285 101.934 46.8811 102.01 47.2675C102.09 47.6539 102.249 47.955 102.487 48.1709C102.726 48.383 103.04 48.4891 103.431 48.4891C103.825 48.4891 104.175 48.3811 104.482 48.1652C104.789 47.9455 105.044 47.6425 105.249 47.2561C105.453 46.866 105.599 46.4171 105.686 45.9096C105.766 45.4058 105.768 44.9626 105.692 44.58C105.616 44.1974 105.461 43.8982 105.226 43.6823C104.991 43.4664 104.673 43.3584 104.272 43.3584C103.881 43.3584 103.531 43.4626 103.22 43.6709C102.914 43.8793 102.658 44.1747 102.453 44.5573C102.249 44.9399 102.105 45.3906 102.022 45.9096ZM109.037 50.2732L110.492 41.5459H112.912L111.458 50.2732H109.037ZM111.952 40.4096C111.592 40.4096 111.295 40.2902 111.06 40.0516C110.829 39.8092 110.734 39.5213 110.776 39.188C110.817 38.8471 110.98 38.5592 111.264 38.3243C111.549 38.0857 111.87 37.9664 112.23 37.9664C112.59 37.9664 112.884 38.0857 113.111 38.3243C113.338 38.5592 113.433 38.8471 113.395 39.188C113.357 39.5213 113.196 39.8092 112.912 40.0516C112.632 40.2902 112.312 40.4096 111.952 40.4096ZM116.669 45.2277L115.828 50.2732H113.414L114.868 41.5459H117.169L116.919 43.0857H117.016C117.292 42.5743 117.683 42.1709 118.186 41.8755C118.694 41.58 119.272 41.4323 119.919 41.4323C120.525 41.4323 121.031 41.5649 121.436 41.83C121.845 42.0952 122.133 42.4721 122.3 42.9607C122.47 43.4493 122.499 44.0346 122.385 44.7164L121.453 50.2732H119.033L119.891 45.1482C119.978 44.6141 119.91 44.1974 119.686 43.8982C119.467 43.5952 119.112 43.4436 118.624 43.4436C118.298 43.4436 117.999 43.5137 117.726 43.6539C117.453 43.794 117.224 43.9986 117.039 44.2675C116.857 44.5327 116.734 44.8527 116.669 45.2277ZM126.736 53.7277C125.948 53.7277 125.291 53.6198 124.764 53.4039C124.242 53.1918 123.844 52.902 123.571 52.5346C123.302 52.1671 123.155 51.7543 123.128 51.2959L125.424 50.9948C125.465 51.1728 125.545 51.3376 125.662 51.4891C125.783 51.6406 125.956 51.7618 126.179 51.8527C126.406 51.9436 126.7 51.9891 127.06 51.9891C127.586 51.9891 128.045 51.8603 128.435 51.6027C128.825 51.349 129.066 50.9228 129.156 50.3243L129.418 48.7277H129.316C129.172 48.9702 128.975 49.1993 128.725 49.4152C128.478 49.6311 128.177 49.8073 127.821 49.9436C127.469 50.08 127.062 50.1482 126.6 50.1482C125.941 50.1482 125.369 49.9967 124.884 49.6936C124.403 49.3868 124.054 48.919 123.838 48.2902C123.626 47.6577 123.6 46.8584 123.759 45.8925C123.925 44.9039 124.225 44.0781 124.656 43.4152C125.088 42.7524 125.6 42.2561 126.191 41.9266C126.781 41.5971 127.397 41.4323 128.037 41.4323C128.526 41.4323 128.92 41.5156 129.219 41.6823C129.522 41.8452 129.755 42.0497 129.918 42.2959C130.081 42.5383 130.196 42.777 130.264 43.0118H130.361L130.6 41.5459H133.003L131.537 50.3584C131.42 51.1046 131.138 51.7258 130.691 52.2221C130.247 52.7221 129.685 53.0971 129.003 53.3471C128.321 53.6008 127.566 53.7277 126.736 53.7277ZM127.645 48.33C128.031 48.33 128.378 48.2334 128.685 48.0402C128.995 47.8433 129.255 47.563 129.463 47.1993C129.672 46.8319 129.817 46.3925 129.901 45.8811C129.984 45.3698 129.982 44.9266 129.895 44.5516C129.812 44.1728 129.649 43.8793 129.406 43.6709C129.168 43.4626 128.853 43.3584 128.463 43.3584C128.062 43.3584 127.71 43.4664 127.406 43.6823C127.103 43.8944 126.852 44.1899 126.651 44.5686C126.454 44.9474 126.316 45.3849 126.236 45.8811C126.153 46.3849 126.149 46.8205 126.225 47.188C126.304 47.5516 126.461 47.8338 126.696 48.0346C126.931 48.2315 127.247 48.33 127.645 48.33Z" fill="#728A96"/>
<path d="M55.592 67.2732V60.7277H56.5977V67.2732H55.592ZM56.1034 59.6368C55.9074 59.6368 55.7383 59.5701 55.5963 59.4365C55.4571 59.303 55.3875 59.1425 55.3875 58.955C55.3875 58.7675 55.4571 58.607 55.5963 58.4735C55.7383 58.34 55.9074 58.2732 56.1034 58.2732C56.2994 58.2732 56.467 58.34 56.6062 58.4735C56.7483 58.607 56.8193 58.7675 56.8193 58.955C56.8193 59.1425 56.7483 59.303 56.6062 59.4365C56.467 59.5701 56.2994 59.6368 56.1034 59.6368ZM59.4454 63.3357V67.2732H58.4397V60.7277H59.4113V61.7505H59.4965C59.6499 61.4181 59.8829 61.151 60.1954 60.9493C60.5079 60.7448 60.9113 60.6425 61.4056 60.6425C61.8488 60.6425 62.2366 60.7334 62.5689 60.9152C62.9013 61.0942 63.1599 61.3669 63.3445 61.7334C63.5292 62.0971 63.6215 62.5573 63.6215 63.1141V67.2732H62.6158V63.1823C62.6158 62.6681 62.4823 62.2675 62.2152 61.9806C61.9482 61.6908 61.5817 61.5459 61.1158 61.5459C60.7948 61.5459 60.5079 61.6155 60.255 61.7547C60.005 61.8939 59.8076 62.0971 59.6627 62.3641C59.5178 62.6311 59.4454 62.955 59.4454 63.3357ZM68.4933 59.4834V58.5459H75.0388V59.4834H72.2944V67.2732H71.2376V59.4834H68.4933ZM83.6701 62.9096C83.6701 63.83 83.504 64.6255 83.1716 65.2959C82.8392 65.9664 82.3832 66.4834 81.8037 66.8471C81.2241 67.2107 80.5622 67.3925 79.8179 67.3925C79.0736 67.3925 78.4116 67.2107 77.8321 66.8471C77.2525 66.4834 76.7966 65.9664 76.4642 65.2959C76.1318 64.6255 75.9656 63.83 75.9656 62.9096C75.9656 61.9891 76.1318 61.1936 76.4642 60.5232C76.7966 59.8527 77.2525 59.3357 77.8321 58.9721C78.4116 58.6084 79.0736 58.4266 79.8179 58.4266C80.5622 58.4266 81.2241 58.6084 81.8037 58.9721C82.3832 59.3357 82.8392 59.8527 83.1716 60.5232C83.504 61.1936 83.6701 61.9891 83.6701 62.9096ZM82.6474 62.9096C82.6474 62.1539 82.521 61.5161 82.2682 60.9962C82.0182 60.4763 81.6787 60.0829 81.2497 59.8158C80.8236 59.5488 80.3463 59.4152 79.8179 59.4152C79.2895 59.4152 78.8108 59.5488 78.3818 59.8158C77.9557 60.0829 77.6162 60.4763 77.3633 60.9962C77.1133 61.5161 76.9883 62.1539 76.9883 62.9096C76.9883 63.6652 77.1133 64.303 77.3633 64.8229C77.6162 65.3428 77.9557 65.7363 78.3818 66.0033C78.8108 66.2704 79.2895 66.4039 79.8179 66.4039C80.3463 66.4039 80.8236 66.2704 81.2497 66.0033C81.6787 65.7363 82.0182 65.3428 82.2682 64.8229C82.521 64.303 82.6474 63.6652 82.6474 62.9096ZM92.3676 58.5459V67.2732H91.3449L86.5892 60.4209H86.504V67.2732H85.4471V58.5459H86.4699L91.2426 65.4152H91.3278V58.5459H92.3676ZM98.2152 67.2732H97.1073L100.312 58.5459H101.403L104.607 67.2732H103.499L100.891 59.9266H100.823L98.2152 67.2732ZM98.6243 63.8641H103.09V64.8016H98.6243V63.8641ZM105.83 69.7277V60.7277H106.802V61.7675H106.921C106.995 61.6539 107.097 61.509 107.228 61.3329C107.362 61.1539 107.552 60.9948 107.799 60.8556C108.049 60.7135 108.387 60.6425 108.813 60.6425C109.364 60.6425 109.85 60.7803 110.271 61.0559C110.691 61.3314 111.019 61.7221 111.255 62.2277C111.491 62.7334 111.609 63.33 111.609 64.0175C111.609 64.7107 111.491 65.3115 111.255 65.8201C111.019 66.3258 110.693 66.7178 110.275 66.9962C109.857 67.2718 109.376 67.4096 108.83 67.4096C108.41 67.4096 108.073 67.34 107.82 67.2008C107.568 67.0587 107.373 66.8982 107.237 66.7192C107.1 66.5374 106.995 66.3868 106.921 66.2675H106.836V69.7277H105.83ZM106.819 64.0005C106.819 64.4948 106.891 64.9309 107.036 65.3087C107.181 65.6837 107.393 65.9777 107.671 66.1908C107.95 66.401 108.291 66.5061 108.694 66.5061C109.114 66.5061 109.465 66.3954 109.746 66.1738C110.031 65.9493 110.244 65.6482 110.386 65.2704C110.531 64.8897 110.603 64.4664 110.603 64.0005C110.603 63.5402 110.532 63.1255 110.39 62.7561C110.251 62.384 110.039 62.09 109.755 61.874C109.474 61.6553 109.12 61.5459 108.694 61.5459C108.285 61.5459 107.941 61.6496 107.663 61.857C107.384 62.0615 107.174 62.3485 107.032 62.7178C106.89 63.0843 106.819 63.5118 106.819 64.0005ZM113.143 69.7277V60.7277H114.114V61.7675H114.234C114.308 61.6539 114.41 61.509 114.541 61.3329C114.674 61.1539 114.864 60.9948 115.112 60.8556C115.362 60.7135 115.7 60.6425 116.126 60.6425C116.677 60.6425 117.163 60.7803 117.583 61.0559C118.004 61.3314 118.332 61.7221 118.568 62.2277C118.803 62.7334 118.921 63.33 118.921 64.0175C118.921 64.7107 118.803 65.3115 118.568 65.8201C118.332 66.3258 118.005 66.7178 117.587 66.9962C117.17 67.2718 116.688 67.4096 116.143 67.4096C115.722 67.4096 115.386 67.34 115.133 67.2008C114.88 67.0587 114.685 66.8982 114.549 66.7192C114.413 66.5374 114.308 66.3868 114.234 66.2675H114.148V69.7277H113.143ZM114.131 64.0005C114.131 64.4948 114.204 64.9309 114.349 65.3087C114.494 65.6837 114.705 65.9777 114.984 66.1908C115.262 66.401 115.603 66.5061 116.006 66.5061C116.427 66.5061 116.778 66.3954 117.059 66.1738C117.343 65.9493 117.556 65.6482 117.698 65.2704C117.843 64.8897 117.916 64.4664 117.916 64.0005C117.916 63.5402 117.845 63.1255 117.702 62.7561C117.563 62.384 117.352 62.09 117.068 61.874C116.786 61.6553 116.433 61.5459 116.006 61.5459C115.597 61.5459 115.254 61.6496 114.975 61.857C114.697 62.0615 114.487 62.3485 114.345 62.7178C114.202 63.0843 114.131 63.5118 114.131 64.0005Z" fill="#728A96"/>
</svg>
