<svg width="343" height="140" viewBox="0 0 343 140" fill="none" xmlns="http://www.w3.org/2000/svg">
<path d="M69.084 26C45.846 26 26.809 43.918 25 66.689L48.71 76.492C50.719 75.118 53.146 74.313 55.757 74.313C55.991 74.313 56.224 74.321 56.455 74.334L66.999 59.051C66.999 58.978 66.998 58.907 66.998 58.835C66.998 49.636 74.481 42.152 83.681 42.152C92.88 42.152 100.363 49.636 100.363 58.835C100.363 68.034 92.88 75.519 83.681 75.519C83.554 75.519 83.428 75.516 83.302 75.513L68.264 86.243C68.272 86.438 68.279 86.637 68.279 86.835C68.279 93.741 62.662 99.357 55.757 99.357C49.696 99.357 44.628 95.031 43.48 89.302L26.524 82.292C31.774 100.86 48.833 114.473 69.084 114.473C93.516 114.473 113.321 94.667 113.321 70.238C113.321 45.805 93.515 26 69.084 26Z" fill="#C5C3C0"/>
<path d="M52.721 93.122L47.287 90.877C48.25 92.882 49.916 94.561 52.128 95.483C56.91 97.475 62.423 95.206 64.416 90.42C65.381 88.106 65.387 85.551 64.43 83.231C63.475 80.91 61.673 79.1 59.356 78.134C57.057 77.177 54.594 77.212 52.43 78.029L58.043 80.35C61.57 81.82 63.238 85.87 61.768 89.397C60.301 92.925 56.248 94.593 52.721 93.122Z" fill="#C5C3C0"/>
<path d="M94.796 58.835C94.796 52.706 89.81 47.719 83.68 47.719C77.551 47.719 72.564 52.706 72.564 58.835C72.564 64.965 77.551 69.95 83.68 69.95C89.81 69.949 94.796 64.964 94.796 58.835ZM75.348 58.816C75.348 54.204 79.087 50.466 83.699 50.466C88.311 50.466 92.05 54.204 92.05 58.816C92.05 63.428 88.311 67.166 83.699 67.166C79.087 67.166 75.348 63.427 75.348 58.816Z" fill="#C5C3C0"/>
<path d="M160.564 56.2669L157.6 61.4769C155.317 59.8819 152.223 58.9219 149.522 58.9219C146.435 58.9219 144.525 60.1999 144.525 62.4889C144.525 65.2699 147.918 65.9169 152.961 67.7269C158.382 69.6439 161.498 71.8969 161.498 76.8619C161.498 83.6549 156.156 87.4699 148.478 87.4699C144.736 87.4699 140.222 86.5039 136.752 84.3929L138.914 78.6169C141.733 80.1059 145.105 80.9889 148.111 80.9889C152.163 80.9889 154.089 79.4939 154.089 77.2839C154.089 74.7549 151.152 73.9949 146.411 72.4249C141.008 70.6209 137.264 68.2539 137.264 62.7589C137.264 56.5619 142.227 53.0029 149.368 53.0029C154.345 53.0029 158.345 54.5799 160.564 56.2669Z" fill="#C5C3C0"/>
<path d="M183.734 59.56V86.899H176.755V59.56H166.625V53.574H193.834V59.56H183.734Z" fill="#C5C3C0"/>
<path d="M208.546 59.542V67.051H221.902V73.037H208.546V80.858H224.042V86.899H201.569V53.574H224.042V59.542H208.546Z" fill="#C5C3C0"/>
<path d="M239.619 80.4289L237.413 86.8999H230.097L242.592 53.575H249.617L262.465 86.8989H254.902L252.648 80.4279L239.619 80.4289ZM246.065 61.524L241.514 74.8669H250.71L246.065 61.524Z" fill="#C5C3C0"/>
<path d="M298.282 66.455L289.162 85.928H285.224L276.252 66.629V86.899H269.569V53.574H276.237L287.437 77.63L298.239 53.574H304.965V86.899H298.283L298.282 66.455Z" fill="#C5C3C0"/>
<path d="M318.457 57.7781C318.457 60.6421 316.311 62.4271 313.848 62.4271C311.376 62.4271 309.225 60.6421 309.225 57.7781C309.225 54.9151 311.376 53.1421 313.848 53.1421C316.312 53.1421 318.457 54.9151 318.457 57.7781ZM310 57.7781C310 60.1741 311.726 61.6791 313.848 61.6791C315.962 61.6791 317.681 60.1741 317.681 57.7781C317.681 55.3751 315.962 53.8931 313.848 53.8931C311.732 53.8931 310 55.3931 310 57.7781ZM313.912 55.4091C315.107 55.4091 315.509 56.0411 315.509 56.7241C315.509 57.3501 315.138 57.7701 314.686 57.9841L315.757 59.9911H314.88L313.977 58.2121H313.046V59.9911H312.316V55.4091H313.912ZM313.053 57.5411H313.867C314.394 57.5411 314.705 57.2101 314.705 56.7941C314.705 56.3741 314.482 56.1041 313.865 56.1041H313.052V57.5411H313.053Z" fill="#C5C3C0"/>
</svg>
